Jost-HairlineItalic.ufo
<glyph name="numbersign" format="2">
  <advance width="554"/>
  <unicode hex="0023"/>
  <outline>
    <contour>
      <point x="123" y="454" type="line"/>
      <point x="125" y="465" type="line"/>
      <point x="572.5" y="465" type="line"/>
      <point x="570.5" y="454" type="line"/>
      <point x="458.5" y="454" type="line"/>
      <point x="454.5" y="454" type="line"/>
      <point x="253" y="454" type="line"/>
      <point x="250" y="454" type="line"/>
    </contour>
    <contour>
      <point x="47.5" y="240" type="line"/>
      <point x="49.5" y="251" type="line"/>
      <point x="165.5" y="251" type="line"/>
      <point x="170.5" y="251" type="line"/>
      <point x="367.5" y="251" type="line"/>
      <point x="373.5" y="251" type="line"/>
      <point x="497" y="251" type="line"/>
      <point x="495.5" y="240" type="line"/>
    </contour>
    <contour>
      <point x="549" y="699.5" type="line"/>
      <point x="560" y="699.5" type="line"/>
      <point x="274" y="0" type="line"/>
      <point x="263" y="0" type="line"/>
      <point x="362.5" y="244" type="line"/>
      <point x="364" y="246" type="line"/>
      <point x="449.5" y="458" type="line"/>
      <point x="451" y="462" type="line"/>
    </contour>
    <contour>
      <point x="345" y="699.5" type="line"/>
      <point x="356" y="699.5" type="line"/>
      <point x="258.5" y="462" type="line"/>
      <point x="257" y="458" type="line"/>
      <point x="170" y="244" type="line"/>
      <point x="170" y="243" type="line"/>
      <point x="70.5" y="0.5" type="line"/>
      <point x="59.5" y="0" type="line"/>
    </contour>
  </outline>
</glyph>
<glyph name="parenleft" format="1">
  <advance width="232"/>
  <unicode hex="0028"/>
  <outline>
    <contour>
      <point x="302.5" y="779.5" type="curve"/>
      <point x="307.5" y="779.5" type="line"/>
      <point x="214" y="626"/>
      <point x="151.5" y="463.5"/>
      <point x="124.5" y="290" type="curve" smooth="yes"/>
      <point x="100" y="125.5"/>
      <point x="109.5" y="-37"/>
      <point x="156" y="-200" type="curve"/>
      <point x="151" y="-200" type="line"/>
      <point x="98" y="-42.5"/>
      <point x="90" y="125.5"/>
      <point x="114.5" y="290" type="curve" smooth="yes"/>
      <point x="141.5" y="464"/>
      <point x="203.5" y="632.5"/>
    </contour>
  </outline>
</glyph>
<glyph name="plus" format="2">
  <advance width="533"/>
  <unicode hex="002B"/>
  <outline>
    <contour>
      <point x="78.5" y="250" type="line"/>
      <point x="80" y="260" type="line"/>
      <point x="478.5" y="260" type="line"/>
      <point x="476.5" y="250" type="line"/>
    </contour>
    <contour>
      <point x="312.5" y="479.5" type="line"/>
      <point x="322.5" y="479.5" type="line"/>
      <point x="244.5" y="30.5" type="line"/>
      <point x="234.5" y="30.5" type="line"/>
    </contour>
  </outline>
</glyph>
<glyph name="period" format="2">
  <advance width="252"/>
  <unicode hex="002E"/>
  <outline>
    <contour>
      <point x="88" y="1" type="curve" smooth="yes"/>
      <point x="88" y="7.5"/>
      <point x="93" y="12"/>
      <point x="99" y="12" type="curve" smooth="yes"/>
      <point x="105" y="12"/>
      <point x="110" y="7.5"/>
      <point x="110" y="1" type="curve" smooth="yes"/>
      <point x="110" y="-5.5"/>
      <point x="105" y="-10"/>
      <point x="99" y="-10" type="curve" smooth="yes"/>
      <point x="93" y="-10"/>
      <point x="88" y="-5.5"/>
    </contour>
  </outline>
</glyph>
<glyph name="two" format="2">
  <advance width="498"/>
  <unicode hex="0032"/>
  <outline>
    <contour>
      <point x="7" y="0" type="line"/>
      <point x="368.5" y="334" type="line" smooth="yes"/>
      <point x="423" y="385"/>
      <point x="478" y="438"/>
      <point x="490" y="519" type="curve" smooth="yes"/>
      <point x="504" y="602"/>
      <point x="461" y="700"/>
      <point x="345.5" y="700.5" type="curve" smooth="yes"/>
      <point x="218.5" y="701.5"/>
      <point x="138.5" y="585.5"/>
      <point x="116" y="460.5" type="curve"/>
      <point x="106" y="460.5" type="line"/>
      <point x="129" y="592.5"/>
      <point x="213.5" y="711.5"/>
      <point x="346" y="710.5" type="curve" smooth="yes"/>
      <point x="466" y="709.5"/>
      <point x="514.5" y="607.5"/>
      <point x="500.5" y="519" type="curve" smooth="yes"/>
      <point x="488.5" y="438.5"/>
      <point x="433" y="380"/>
      <point x="377.5" y="328" type="curve" smooth="yes"/>
      <point x="33.5" y="10.5" type="line"/>
      <point x="449.5" y="10" type="line"/>
      <point x="448" y="0" type="line"/>
    </contour>
  </outline>
</glyph>
<glyph name="three" format="2">
  <advance width="534"/>
  <unicode hex="0033"/>
  <outline>
    <contour>
      <point x="279" y="362.5" type="curve"/>
      <point x="280" y="370.5" type="line"/>
      <point x="375" y="376"/>
      <point x="490.5" y="429"/>
      <point x="507.5" y="533" type="curve" smooth="yes"/>
      <point x="521" y="616.5"/>
      <point x="466.5" y="698.5"/>
      <point x="365" y="699.5" type="curve" smooth="yes"/>
      <point x="257" y="700.5"/>
      <point x="186" y="621.5"/>
      <point x="165" y="526.5" type="curve"/>
      <point x="155" y="526.5" type="line"/>
      <point x="176" y="629"/>
      <point x="251.5" y="710"/>
      <point x="365.5" y="709.5" type="curve" smooth="yes"/>
      <point x="474" y="709"/>
      <point x="532" y="623"/>
      <point x="517.5" y="533.5" type="curve" smooth="yes"/>
      <point x="500" y="423.5"/>
      <point x="385" y="367.5"/>
    </contour>
    <contour>
      <point x="251.5" y="-9.5" type="curve" smooth="yes"/>
      <point x="125" y="-9.5"/>
      <point x="64.5" y="77.5"/>
      <point x="75" y="185" type="curve"/>
      <point x="84.5" y="185" type="line"/>
      <point x="74.5" y="81"/>
      <point x="130" y="1"/>
      <point x="252" y="0.5" type="curve" smooth="yes"/>
      <point x="364" y="0"/>
      <point x="457" y="74"/>
      <point x="472" y="175" type="curve" smooth="yes"/>
      <point x="488.5" y="294"/>
      <point x="373" y="353.5"/>
      <point x="278.5" y="359.5" type="curve"/>
      <point x="279.5" y="367.5" type="line"/>
      <point x="384.5" y="362"/>
      <point x="499.5" y="298.5"/>
      <point x="482" y="175" type="curve" smooth="yes"/>
      <point x="466.5" y="67"/>
      <point x="369" y="-9.5"/>
    </contour>
  </outline>
</glyph>
<glyph name="colon" format="2">
  <advance width="291"/>
  <unicode hex="003A"/>
  <outline>
    <contour>
      <point x="88" y="1" type="curve" smooth="yes"/>
      <point x="88" y="7.5"/>
      <point x="93" y="12"/>
      <point x="99" y="12" type="curve" smooth="yes"/>
      <point x="105" y="12"/>
      <point x="110" y="7.5"/>
      <point x="110" y="1" type="curve" smooth="yes"/>
      <point x="110" y="-5.5"/>
      <point x="105" y="-10"/>
      <point x="99" y="-10" type="curve" smooth="yes"/>
      <point x="93" y="-10"/>
      <point x="88" y="-5.5"/>
    </contour>
    <contour>
      <point x="147.5" y="349" type="curve" smooth="yes"/>
      <point x="147.5" y="355.5"/>
      <point x="152.5" y="360"/>
      <point x="158.5" y="360" type="curve" smooth="yes"/>
      <point x="164.5" y="360"/>
      <point x="169.5" y="355.5"/>
      <point x="169.5" y="349" type="curve" smooth="yes"/>
      <point x="169.5" y="342.5"/>
      <point x="164.5" y="338"/>
      <point x="158.5" y="338" type="curve" smooth="yes"/>
      <point x="152.5" y="338"/>
      <point x="147.5" y="342.5"/>
    </contour>
  </outline>
</glyph>
<glyph name="semicolon" format="2">
  <advance width="267"/>
  <unicode hex="003B"/>
  <outline>
    <contour>
      <point x="176.5" y="349" type="curve" smooth="yes"/>
      <point x="176.5" y="355.5"/>
      <point x="181.5" y="360"/>
      <point x="187.5" y="360" type="curve" smooth="yes"/>
      <point x="193.5" y="360"/>
      <point x="198.5" y="355.5"/>
      <point x="198.5" y="349" type="curve" smooth="yes"/>
      <point x="198.5" y="342.5"/>
      <point x="193.5" y="338"/>
      <point x="187.5" y="338" type="curve" smooth="yes"/>
      <point x="181.5" y="338"/>
      <point x="176.5" y="342.5"/>
    </contour>
    <contour>
      <point x="159.5" y="93" type="line"/>
      <point x="169.5" y="88" type="line"/>
      <point x="18.5" y="-160" type="line"/>
      <point x="12.5" y="-158" type="line"/>
    </contour>
  </outline>
</glyph>
<glyph name="greater" format="1">
  <advance width="621"/>
  <unicode hex="003E"/>
  <outline>
    <contour>
      <point x="558.5" y="258" type="line"/>
      <point x="114" y="460" type="line"/>
      <point x="116" y="469.5" type="line"/>
      <point x="575.5" y="261" type="line"/>
      <point x="574.5" y="255" type="line"/>
      <point x="43.5" y="45.5" type="line"/>
      <point x="45" y="55.5" type="line"/>
    </contour>
  </outline>
</glyph>
<glyph name="question" format="2">
  <advance width="525"/>
  <unicode hex="003F"/>
  <outline>
    <contour>
      <point x="500.5" y="520" type="curve" smooth="yes"/>
      <point x="517" y="616.5"/>
      <point x="460" y="699"/>
      <point x="349" y="699.5" type="curve" smooth="yes"/>
      <point x="259.5" y="700"/>
      <point x="197" y="650.5"/>
      <point x="144.5" y="588" type="curve"/>
      <point x="136.5" y="594" type="line"/>
      <point x="191" y="658"/>
      <point x="255" y="710"/>
      <point x="349.5" y="709.5" type="curve" smooth="yes"/>
      <point x="466" y="708.5"/>
      <point x="527.5" y="623.5"/>
      <point x="510.5" y="520" type="curve" smooth="yes"/>
      <point x="490.5" y="413.5"/>
      <point x="378.5" y="345"/>
      <point x="258" y="337" type="curve"/>
      <point x="229.5" y="170.5" type="line"/>
      <point x="221.5" y="170.5" type="line"/>
      <point x="247" y="345" type="line"/>
      <point x="248" y="345" type="line"/>
      <point x="369" y="351"/>
      <point x="480" y="415"/>
    </contour>
    <contour>
      <point x="180.5" y="1" type="curve" smooth="yes"/>
      <point x="180.5" y="7"/>
      <point x="185.5" y="12"/>
      <point x="191.5" y="12" type="curve" smooth="yes"/>
      <point x="197.5" y="12"/>
      <point x="202" y="7.5"/>
      <point x="202" y="1" type="curve" smooth="yes"/>
      <point x="202" y="-5.56156"/>
      <point x="197" y="-10"/>
      <point x="191" y="-10" type="curve" smooth="yes"/>
      <point x="185" y="-10"/>
      <point x="180.5" y="-6.04951"/>
    </contour>
  </outline>
</glyph>
<glyph name="A" format="1">
  <advance width="582"/>
  <unicode hex="0041"/>
  <outline>
    <contour>
      <point x="144.5" y="272" type="line"/>
      <point x="146" y="282" type="line"/>
      <point x="479" y="282" type="line"/>
      <point x="477.5" y="272" type="line"/>
    </contour>
    <contour>
      <point x="382.5" y="688" type="line"/>
      <point x="152.5" y="277" type="line"/>
      <point x="151" y="273" type="line"/>
      <point x="-1.5" y="0" type="line"/>
      <point x="-13.5" y="0" type="line"/>
      <point x="386.5" y="715" type="line"/>
      <point x="540.5" y="0" type="line"/>
      <point x="528.5" y="0" type="line"/>
      <point x="472" y="273" type="line"/>
      <point x="471.5" y="276" type="line"/>
    </contour>
  </outline>
</glyph>
<glyph name="B" format="1">
  <advance width="480"/>
  <unicode hex="0042"/>
  <outline>
    <contour>
      <point x="133" y="386" type="line"/>
      <point x="134" y="394" type="line"/>
      <point x="233.5" y="394" type="line"/>
      <point x="331.5" y="396"/>
      <point x="424" y="439"/>
      <point x="440.5" y="540" type="curve" smooth="yes"/>
      <point x="457" y="634.5"/>
      <point x="389.5" y="689"/>
      <point x="285" y="689" type="curve" smooth="yes"/>
      <point x="188" y="689" type="line"/>
      <point x="71.5" y="11" type="line"/>
      <point x="178" y="11" type="line" smooth="yes"/>
      <point x="302.5" y="11"/>
      <point x="399.5" y="76"/>
      <point x="418.5" y="200" type="curve" smooth="yes"/>
      <point x="435" y="309"/>
      <point x="343" y="384"/>
      <point x="242.5" y="384" type="curve" smooth="yes"/>
      <point x="132.5" y="384" type="line"/>
      <point x="133.5" y="392" type="line"/>
      <point x="252.5" y="392" type="line" smooth="yes"/>
      <point x="347" y="392"/>
      <point x="445.5" y="315.5"/>
      <point x="429.5" y="200" type="curve" smooth="yes"/>
      <point x="410.5" y="69"/>
      <point x="307" y="0"/>
      <point x="177" y="0" type="curve" smooth="yes"/>
      <point x="59.5" y="0" type="line"/>
      <point x="180" y="700" type="line"/>
      <point x="286" y="700" type="line" smooth="yes"/>
      <point x="395.5" y="700"/>
      <point x="468.5" y="639.5"/>
      <point x="451.5" y="539.5" type="curve" smooth="yes"/>
      <point x="435" y="436"/>
      <point x="345" y="388"/>
      <point x="243" y="386" type="curve"/>
    </contour>
  </outline>
</glyph>
<glyph name="L" format="2">
  <advance width="417"/>
  <unicode hex="004C"/>
  <outline>
    <contour>
      <point x="180" y="699.5" type="line"/>
      <point x="190" y="699.5" type="line"/>
      <point x="71.5" y="10" type="line"/>
      <point x="372.5" y="10" type="line"/>
      <point x="371" y="0" type="line"/>
      <point x="60" y="0" type="line"/>
    </contour>
  </outline>
</glyph>
<glyph name="N" format="1">
  <advance width="645"/>
  <unicode hex="004E"/>
  <outline>
    <contour>
      <point x="659.5" y="699.5" type="line"/>
      <point x="670.5" y="699.5" type="line"/>
      <point x="547.5" y="-15" type="line"/>
      <point x="148.5" y="678" type="line"/>
      <point x="31.5" y="0" type="line"/>
      <point x="20.5" y="0" type="line"/>
      <point x="143.5" y="715" type="line"/>
      <point x="542" y="17" type="line"/>
    </contour>
  </outline>
</glyph>
<glyph name="X" format="1">
  <advance width="485"/>
  <unicode hex="0058"/>
  <outline>
    <contour>
      <point x="528.5" y="699" type="line"/>
      <point x="542.5" y="699" type="line"/>
      <point x="290.5" y="366.5" type="line"/>
      <point x="449" y="0" type="line"/>
      <point x="435.5" y="0" type="line"/>
      <point x="283" y="355.5" type="line"/>
      <point x="15.5" y="0" type="line"/>
      <point x="1.5" y="0" type="line"/>
      <point x="278.5" y="367.5" type="line"/>
      <point x="134" y="700" type="line"/>
      <point x="147.5" y="700" type="line"/>
      <point x="286" y="377.5" type="line"/>
    </contour>
  </outline>
</glyph>
<glyph name="bracketleft" format="1">
  <advance width="252"/>
  <unicode hex="005B"/>
  <outline>
    <contour>
      <point x="209.5" y="769" type="line"/>
      <point x="58.5" y="-209" type="line"/>
      <point x="183.5" y="-209" type="line"/>
      <point x="182" y="-220" type="line"/>
      <point x="45.5" y="-220" type="line"/>
      <point x="200" y="780" type="line"/>
      <point x="336" y="780" type="line"/>
      <point x="334.5" y="769" type="line"/>
    </contour>
  </outline>
</glyph>
<glyph name="m" format="1">
  <advance width="669"/>
  <unicode hex="006D"/>
  <outline>
    <contour>
      <point x="357.5" y="320" type="line" smooth="yes"/>
      <point x="365.5" y="386.5"/>
      <point x="355" y="458"/>
      <point x="282" y="459.5" type="curve" smooth="yes"/>
      <point x="200" y="461.5"/>
      <point x="130" y="365"/>
      <point x="112" y="281" type="curve"/>
      <point x="107" y="281" type="line"/>
      <point x="125" y="374"/>
      <point x="195" y="471.5"/>
      <point x="282.5" y="469.5" type="curve" smooth="yes"/>
      <point x="361.5" y="468"/>
      <point x="376.5" y="393.5"/>
      <point x="367.5" y="320" type="curve" smooth="yes"/>
      <point x="312" y="0" type="line"/>
      <point x="302" y="0" type="line"/>
    </contour>
    <contour>
      <point x="144.5" y="459.5" type="line"/>
      <point x="64.5" y="0" type="line"/>
      <point x="54.5" y="0" type="line"/>
      <point x="134.5" y="459.5" type="line"/>
    </contour>
    <contour>
      <point x="615" y="320" type="curve" smooth="yes"/>
      <point x="559.5" y="0" type="line"/>
      <point x="549.5" y="0" type="line"/>
      <point x="605" y="320" type="line" smooth="yes"/>
      <point x="613" y="386.5"/>
      <point x="602.5" y="458"/>
      <point x="529.5" y="459.5" type="curve" smooth="yes"/>
      <point x="447" y="461.5"/>
      <point x="377.5" y="364.5"/>
      <point x="359.5" y="281" type="curve"/>
      <point x="352.5" y="281" type="line"/>
      <point x="371" y="374.5"/>
      <point x="442.5" y="471.5"/>
      <point x="530" y="469.5" type="curve" smooth="yes"/>
      <point x="609" y="468"/>
      <point x="624" y="393.5"/>
    </contour>
  </outline>
</glyph>
<glyph name="s" format="1">
  <advance width="391"/>
  <unicode hex="0073"/>
  <outline>
    <contour>
      <point x="54" y="147" type="line"/>
      <point x="59" y="77.5"/>
      <point x="83.5" y="0.5"/>
      <point x="174.5" y="0" type="curve" smooth="yes"/>
      <point x="244" y="-0.5"/>
      <point x="304.5" y="49"/>
      <point x="313.5" y="117" type="curve" smooth="yes"/>
      <point x="322.5" y="181.5"/>
      <point x="269.5" y="210.5"/>
      <point x="210" y="231" type="curve" smooth="yes"/>
      <point x="144" y="253.5"/>
      <point x="91.5" y="279.5"/>
      <point x="103" y="359" type="curve" smooth="yes"/>
      <point x="113.5" y="426.5"/>
      <point x="176.5" y="468"/>
      <point x="245.5" y="467.5" type="curve" smooth="yes"/>
      <point x="317" y="467"/>
      <point x="347.5" y="421.5"/>
      <point x="361" y="368" type="curve"/>
      <point x="351" y="365" type="line"/>
      <point x="338.5" y="415.5"/>
      <point x="311" y="457"/>
      <point x="245" y="457.5" type="curve" smooth="yes"/>
      <point x="182" y="458.009"/>
      <point x="122.5" y="420.5"/>
      <point x="113" y="359" type="curve" smooth="yes"/>
      <point x="101.5" y="284.5"/>
      <point x="154" y="261"/>
      <point x="216.5" y="240" type="curve" smooth="yes"/>
      <point x="277" y="219.5"/>
      <point x="332.5" y="186"/>
      <point x="323.5" y="117" type="curve" smooth="yes"/>
      <point x="314" y="42.5"/>
      <point x="250" y="-9.5"/>
      <point x="174" y="-9.5" type="curve" smooth="yes"/>
      <point x="76.5" y="-9.5"/>
      <point x="49" y="69.5"/>
      <point x="44" y="144" type="curve"/>
    </contour>
  </outline>
</glyph>
<glyph name="w" format="1">
  <advance width="601"/>
  <unicode hex="0077"/>
  <outline>
    <contour>
      <point x="66.5" y="460" type="line"/>
      <point x="76" y="460" type="line"/>
      <point x="132.5" y="19" type="line"/>
      <point x="350.5" y="475.5" type="line"/>
      <point x="419.5" y="18.5" type="line"/>
      <point x="629.5" y="459.5" type="line"/>
      <point x="639.5" y="459.5" type="line"/>
      <point x="414" y="-15.5" type="line"/>
      <point x="345" y="440.5" type="line"/>
      <point x="126.5" y="-15.5" type="line"/>
    </contour>
  </outline>
</glyph>
<glyph name="x" format="1">
  <advance width="368"/>
  <unicode hex="0078"/>
  <outline>
    <contour>
      <point x="389" y="459" type="line"/>
      <point x="403" y="459" type="line"/>
      <point x="210.5" y="236.5" type="line"/>
      <point x="342" y="0" type="line"/>
      <point x="328.5" y="0" type="line"/>
      <point x="203" y="229" type="line"/>
      <point x="7" y="0" type="line"/>
      <point x="-8" y="0" type="line"/>
      <point x="197.5" y="237.5" type="line"/>
      <point x="73" y="460" type="line"/>
      <point x="86.5" y="460" type="line"/>
      <point x="205" y="245" type="line"/>
    </contour>
  </outline>
</glyph>
<glyph name="y" format="2">
  <advance width="412"/>
  <unicode hex="0079"/>
  <outline>
    <contour>
      <point x="455" y="459.5" type="line"/>
      <point x="46.5" y="-219.5" type="line"/>
      <point x="35.5" y="-219" type="line"/>
      <point x="180.5" y="20.5" type="line"/>
      <point x="61" y="460" type="line"/>
      <point x="72" y="460" type="line"/>
      <point x="191" y="20" type="line"/>
      <point x="179.5" y="20.5" type="line"/>
      <point x="444" y="459.5" type="line"/>
    </contour>
  </outline>
</glyph>
<glyph name="z" format="1">
  <advance width="417"/>
  <unicode hex="007A"/>
  <outline>
    <contour>
      <point x="417" y="449.5" type="line"/>
      <point x="88.5" y="449.5" type="line"/>
      <point x="90" y="459.5" type="line"/>
      <point x="440" y="459.5" type="line"/>
      <point x="14.5" y="10.5" type="line"/>
      <point x="372.5" y="10.5" type="line"/>
      <point x="371" y="0" type="line"/>
      <point x="-8.5" y="0" type="line"/>
    </contour>
  </outline>
</glyph>
<glyph name="braceleft" format="2">
  <advance width="272"/>
  <unicode hex="007B"/>
  <outline>
    <contour>
      <point x="225" y="640" type="curve" smooth="yes"/>
      <point x="193" y="430" type="line" smooth="yes"/>
      <point x="183" y="355.5"/>
      <point x="149" y="302"/>
      <point x="104.5" y="288.5" type="curve"/>
      <point x="105.5" y="292" type="line"/>
      <point x="144" y="274.5"/>
      <point x="157" y="220.5"/>
      <point x="149.5" y="150" type="curve" smooth="yes"/>
      <point x="117" y="-60" type="line" smooth="yes"/>
      <point x="109.5" y="-134"/>
      <point x="108.5" y="-190"/>
      <point x="177.5" y="-190" type="curve" smooth="yes"/>
      <point x="197.5" y="-190" type="line"/>
      <point x="196" y="-200" type="line"/>
      <point x="176.5" y="-200" type="line" smooth="yes"/>
      <point x="99.5" y="-200"/>
      <point x="99" y="-138"/>
      <point x="107.5" y="-60" type="curve" smooth="yes"/>
      <point x="140" y="150" type="line" smooth="yes"/>
      <point x="147" y="212.5"/>
      <point x="136.5" y="259.5"/>
      <point x="104" y="285" type="curve"/>
      <point x="105.5" y="295" type="line"/>
      <point x="145.5" y="316.5"/>
      <point x="173.5" y="364"/>
      <point x="183" y="430" type="curve" smooth="yes"/>
      <point x="215" y="640" type="line" smooth="yes"/>
      <point x="226" y="723"/>
      <point x="251" y="779.5"/>
      <point x="327" y="779.5" type="curve" smooth="yes"/>
      <point x="347" y="779.5" type="line"/>
      <point x="345.5" y="770" type="line"/>
      <point x="326" y="770" type="line" smooth="yes"/>
      <point x="257.5" y="770"/>
      <point x="235" y="718.5"/>
    </contour>
  </outline>
</glyph>
<glyph name="yen" format="2">
  <advance width="548"/>
  <unicode hex="00A5"/>
  <outline>
    <contour>
      <point x="48" y="270" type="line"/>
      <point x="49.5" y="280" type="line"/>
      <point x="512.5" y="280" type="line"/>
      <point x="511" y="270" type="line"/>
    </contour>
    <contour>
      <point x="26.5" y="145" type="line"/>
      <point x="28.5" y="155" type="line"/>
      <point x="491.5" y="155" type="line"/>
      <point x="490" y="145" type="line"/>
    </contour>
    <contour>
      <point x="572" y="699" type="line"/>
      <point x="585" y="699" type="line"/>
      <point x="279" y="264.5" type="line"/>
      <point x="233.5" y="0" type="line"/>
      <point x="222.5" y="0" type="line"/>
      <point x="269.5" y="267.5" type="line"/>
      <point x="121.5" y="700" type="line"/>
      <point x="134" y="700" type="line"/>
      <point x="276.5" y="281.5" type="line"/>
    </contour>
  </outline>
</glyph>
<glyph name="copyright" format="1">
  <advance width="776"/>
  <unicode hex="00A9"/>
  <outline>
    <contour>
      <point x="229" y="350" type="curve" smooth="yes"/>
      <point x="214.5" y="243.5"/>
      <point x="269" y="143.5"/>
      <point x="382" y="142.5" type="curve" smooth="yes"/>
      <point x="438" y="142"/>
      <point x="482" y="162"/>
      <point x="521.5" y="192" type="curve"/>
      <point x="520" y="182.5" type="line"/>
      <point x="480.5" y="154.5"/>
      <point x="438" y="135"/>
      <point x="381.5" y="135.5" type="curve" smooth="yes"/>
      <point x="264.5" y="136.5"/>
      <point x="206.5" y="238.5"/>
      <point x="221.5" y="350" type="curve" smooth="yes"/>
      <point x="238" y="467"/>
      <point x="329.5" y="564"/>
      <point x="447" y="564.5" type="curve" smooth="yes"/>
      <point x="500.5" y="565"/>
      <point x="537.5" y="548"/>
      <point x="571.5" y="517.5" type="curve"/>
      <point x="570" y="508.5" type="line"/>
      <point x="537.5" y="541.5"/>
      <point x="498" y="557.5"/>
      <point x="447" y="557.5" type="curve" smooth="yes"/>
      <point x="333" y="557"/>
      <point x="245" y="463.5"/>
    </contour>
    <contour>
      <point x="85.5" y="350" type="curve" smooth="yes"/>
      <point x="59.5" y="165"/>
      <point x="178" y="0.5"/>
      <point x="370.5" y="0" type="curve" smooth="yes"/>
      <point x="566.5" y="-0.5"/>
      <point x="736" y="157"/>
      <point x="764.5" y="350" type="curve" smooth="yes"/>
      <point x="790.5" y="535"/>
      <point x="672" y="699.5"/>
      <point x="479.5" y="700" type="curve" smooth="yes"/>
      <point x="283.5" y="700.5"/>
      <point x="114" y="543"/>
    </contour>
    <contour>
      <point x="75.5" y="350" type="curve" smooth="yes"/>
      <point x="104.5" y="549.5"/>
      <point x="274.5" y="710.5"/>
      <point x="479.5" y="710" type="curve" smooth="yes"/>
      <point x="681" y="709.5"/>
      <point x="801" y="541.5"/>
      <point x="774.5" y="350" type="curve" smooth="yes"/>
      <point x="745.5" y="150.5"/>
      <point x="575" y="-10.5"/>
      <point x="370" y="-10" type="curve" smooth="yes"/>
      <point x="168.5" y="-9.5"/>
      <point x="49" y="158.5"/>
    </contour>
  </outline>
</glyph>
<glyph name="ordfeminine" format="2">
  <advance width="230"/>
  <unicode hex="00AA"/>
  <outline>
    <contour>
      <point x="92" y="528" type="curve" smooth="yes"/>
      <point x="86.5" y="486.5"/>
      <point x="114" y="461.5"/>
      <point x="149.5" y="460.5" type="curve" smooth="yes"/>
      <point x="196" y="459.5"/>
      <point x="231" y="500.5"/>
      <point x="243" y="539.5" type="curve"/>
      <point x="246.5" y="539" type="line"/>
      <point x="234.5" y="498"/>
      <point x="200.5" y="454.5"/>
      <point x="149.5" y="455.5" type="curve" smooth="yes"/>
      <point x="110.5" y="456.5"/>
      <point x="81.5" y="484"/>
      <point x="88" y="528.5" type="curve" smooth="yes"/>
      <point x="95" y="573.5"/>
      <point x="144" y="600"/>
      <point x="188" y="599.5" type="curve" smooth="yes"/>
      <point x="218.5" y="599"/>
      <point x="236" y="588"/>
      <point x="250.5" y="578" type="curve"/>
      <point x="249.5" y="572" type="line"/>
      <point x="234.5" y="583.5"/>
      <point x="215.5" y="595"/>
      <point x="187.5" y="595.5" type="curve" smooth="yes"/>
      <point x="146.5" y="596.5"/>
      <point x="98.5" y="571"/>
    </contour>
    <contour>
      <point x="132.5" y="662.5" type="curve"/>
      <point x="129" y="666.5" type="line"/>
      <point x="149" y="681.5"/>
      <point x="177.5" y="701"/>
      <point x="210.5" y="699.5" type="curve" smooth="yes"/>
      <point x="253.5" y="697"/>
      <point x="266.5" y="664"/>
      <point x="262.5" y="625" type="curve"/>
      <point x="233" y="460.5" type="line"/>
      <point x="228" y="460.5" type="line"/>
      <point x="257.5" y="625" type="line"/>
      <point x="261.5" y="662"/>
      <point x="251" y="692.5"/>
      <point x="210.5" y="694.5" type="curve" smooth="yes"/>
      <point x="179.5" y="696"/>
      <point x="153" y="678.5"/>
    </contour>
  </outline>
</glyph>
<glyph name="guillemotleft" format="1">
  <advance width="470"/>
  <unicode hex="00AB"/>
  <outline>
    <contour>
      <point x="220" y="255" type="line"/>
      <point x="380.5" y="27" type="line"/>
      <point x="372.5" y="20" type="line"/>
      <point x="210" y="256" type="line"/>
      <point x="452.5" y="489" type="line"/>
      <point x="458.5" y="482" type="line"/>
    </contour>
    <contour>
      <point x="64.5" y="255" type="line"/>
      <point x="225" y="27" type="line"/>
      <point x="217.5" y="20" type="line"/>
      <point x="55" y="256" type="line"/>
      <point x="297.5" y="489" type="line"/>
      <point x="303.5" y="482" type="line"/>
    </contour>
  </outline>
</glyph>
<glyph name="uni00AD" format="1">
  <advance width="203"/>
  <unicode hex="00AD"/>
  <outline>
    <contour>
      <point x="23" y="265" type="line"/>
      <point x="24.5" y="275" type="line"/>
      <point x="219" y="275" type="line"/>
      <point x="217" y="265" type="line"/>
    </contour>
  </outline>
</glyph>
<glyph name="registered" format="1">
  <advance width="776"/>
  <unicode hex="00AE"/>
  <outline>
    <contour>
      <point x="389" y="340" type="line"/>
      <point x="397" y="340" type="line"/>
      <point x="497.5" y="150" type="line"/>
      <point x="488.5" y="150" type="line"/>
    </contour>
    <contour>
      <point x="362.5" y="570" type="line"/>
      <point x="369.5" y="570" type="line"/>
      <point x="303.5" y="150" type="line"/>
      <point x="296.5" y="150" type="line"/>
    </contour>
    <contour>
      <point x="361.5" y="563" type="line"/>
      <point x="362.5" y="570" type="line"/>
      <point x="428.5" y="570" type="line"/>
      <point x="502.5" y="568"/>
      <point x="560" y="528.5"/>
      <point x="549" y="453.5" type="curve" smooth="yes"/>
      <point x="538" y="378"/>
      <point x="469.5" y="340.5"/>
      <point x="393" y="338.5" type="curve"/>
      <point x="327" y="338" type="line"/>
      <point x="327.5" y="344" type="line"/>
      <point x="393.5" y="344" type="line"/>
      <point x="467.5" y="346"/>
      <point x="531.5" y="381.5"/>
      <point x="542" y="454" type="curve" smooth="yes"/>
      <point x="552.5" y="525.5"/>
      <point x="499" y="560.5"/>
      <point x="428" y="562.5" type="curve"/>
    </contour>
    <contour>
      <point x="85.5" y="350" type="curve" smooth="yes"/>
      <point x="59.5" y="165"/>
      <point x="178" y="0.5"/>
      <point x="370.5" y="0" type="curve" smooth="yes"/>
      <point x="566.5" y="-0.5"/>
      <point x="736" y="157"/>
      <point x="764.5" y="350" type="curve" smooth="yes"/>
      <point x="790.5" y="535"/>
      <point x="672" y="699.5"/>
      <point x="479.5" y="700" type="curve" smooth="yes"/>
      <point x="283.5" y="700.5"/>
      <point x="114" y="543"/>
    </contour>
    <contour>
      <point x="75.5" y="350" type="curve" smooth="yes"/>
      <point x="104.5" y="549.5"/>
      <point x="274.5" y="710.5"/>
      <point x="479.5" y="710" type="curve" smooth="yes"/>
      <point x="681" y="709.5"/>
      <point x="801" y="541.5"/>
      <point x="774.5" y="350" type="curve" smooth="yes"/>
      <point x="745.5" y="150.5"/>
      <point x="575" y="-10.5"/>
      <point x="370" y="-10" type="curve" smooth="yes"/>
      <point x="168.5" y="-9.5"/>
      <point x="49" y="158.5"/>
    </contour>
  </outline>
</glyph>
<glyph name="uni00B3" format="2">
  <advance width="298"/>
  <unicode hex="00B3"/>
  <outline>
    <contour>
      <point x="193" y="497.5" type="curve"/>
      <point x="194" y="502.5" type="line"/>
      <point x="251" y="507.5"/>
      <point x="321" y="537.5"/>
      <point x="332.5" y="600" type="curve" smooth="yes"/>
      <point x="341.5" y="649.5"/>
      <point x="309.5" y="698.5"/>
      <point x="249.5" y="699.5" type="curve" smooth="yes"/>
      <point x="184.5" y="700.5"/>
      <point x="141.5" y="653"/>
      <point x="126.5" y="597" type="curve"/>
      <point x="120.5" y="597" type="line"/>
      <point x="136" y="657"/>
      <point x="180.5" y="706.5"/>
      <point x="249.5" y="705.5" type="curve" smooth="yes"/>
      <point x="314.5" y="704.5"/>
      <point x="348" y="652.5"/>
      <point x="338.5" y="599.5" type="curve" smooth="yes"/>
      <point x="326.5" y="533.5"/>
      <point x="256.5" y="502"/>
    </contour>
    <contour>
      <point x="173.5" y="274.5" type="curve" smooth="yes"/>
      <point x="96.5" y="275"/>
      <point x="64" y="327"/>
      <point x="69" y="391" type="curve"/>
      <point x="75" y="391" type="line"/>
      <point x="70.5" y="329"/>
      <point x="99" y="281"/>
      <point x="173.5" y="280.5" type="curve" smooth="yes"/>
      <point x="240.5" y="280"/>
      <point x="298" y="324.5"/>
      <point x="307.5" y="385" type="curve" smooth="yes"/>
      <point x="318.5" y="457"/>
      <point x="249.5" y="490"/>
      <point x="193.5" y="495.5" type="curve"/>
      <point x="194" y="500.5" type="line"/>
      <point x="256.5" y="495"/>
      <point x="325" y="459.5"/>
      <point x="313.5" y="384.5" type="curve" smooth="yes"/>
      <point x="303.5" y="320.5"/>
      <point x="243.5" y="274"/>
    </contour>
  </outline>
</glyph>
<glyph name="acute" format="2">
  <advance width="342"/>
  <unicode hex="00B4"/>
  <outline>
    <contour>
      <point x="335.5" y="691" type="line"/>
      <point x="142.5" y="536" type="line"/>
      <point x="138" y="541" type="line"/>
      <point x="328.5" y="699" type="line"/>
    </contour>
  </outline>
</glyph>
<glyph name="mu" format="1">
  <advance width="460"/>
  <unicode hex="00B5"/>
  <outline>
    <contour>
      <point x="341" y="0" type="line"/>
      <point x="420.5" y="459.5" type="line"/>
      <point x="430.5" y="459.5" type="line"/>
      <point x="351" y="0" type="line"/>
    </contour>
    <contour>
      <point x="90.5" y="150" type="line" smooth="yes"/>
      <point x="80.5" y="72.5"/>
      <point x="95" y="1"/>
      <point x="184" y="0.5" type="curve" smooth="yes"/>
      <point x="280.5" y="-0.5"/>
      <point x="352.5" y="90.5"/>
      <point x="373" y="179" type="curve"/>
      <point x="378.5" y="179" type="line"/>
      <point x="358" y="81"/>
      <point x="284.5" y="-10.5"/>
      <point x="183" y="-9.5" type="curve" smooth="yes"/>
      <point x="88" y="-9"/>
      <point x="69.5" y="65.5"/>
      <point x="80.5" y="150" type="curve" smooth="yes"/>
      <point x="134.5" y="459.5" type="line"/>
      <point x="144.5" y="459.5" type="line"/>
    </contour>
    <contour>
      <point x="134.5" y="459.5" type="line"/>
      <point x="144.5" y="459.5" type="line"/>
      <point x="10" y="-319.5" type="line"/>
      <point x="0" y="-319.5" type="line"/>
    </contour>
  </outline>
</glyph>
<glyph name="paragraph" format="1">
  <advance width="434"/>
  <unicode hex="00B6"/>
  <outline>
    <contour>
      <point x="370" y="690" type="line"/>
      <point x="371.5" y="700" type="line"/>
      <point x="469" y="700" type="line"/>
      <point x="467.5" y="690" type="line"/>
    </contour>
    <contour>
      <point x="459.5" y="699.5" type="line"/>
      <point x="469.5" y="699.5" type="line"/>
      <point x="311.5" y="-219.5" type="line"/>
      <point x="301.5" y="-219.5" type="line"/>
    </contour>
    <contour>
      <point x="371.5" y="700" type="line"/>
      <point x="382.5" y="699.5" type="line"/>
      <point x="224" y="-219.5" type="line"/>
      <point x="214" y="-219.5" type="line"/>
    </contour>
    <contour>
      <point x="298.5" y="270" type="line"/>
      <point x="176" y="277"/>
      <point x="93.5105" y="355.997"/>
      <point x="113.5" y="485" type="curve" smooth="yes"/>
      <point x="135" y="618.5"/>
      <point x="244" y="700.5"/>
      <point x="371.5" y="700" type="curve"/>
    </contour>
  </outline>
</glyph>
<glyph name="Aacute" format="1">
  <advance width="582"/>
  <unicode hex="00C1"/>
  <outline>
    <contour>
      <point x="142.5" y="272" type="line"/>
      <point x="144" y="282" type="line"/>
      <point x="479" y="282" type="line"/>
      <point x="477.5" y="272" type="line"/>
    </contour>
    <contour>
      <point x="382.5" y="688" type="line"/>
      <point x="152.5" y="277" type="line"/>
      <point x="151" y="273" type="line"/>
      <point x="-1.5" y="0" type="line"/>
      <point x="-13.5" y="0" type="line"/>
      <point x="386.5" y="715" type="line"/>
      <point x="540.5" y="0" type="line"/>
      <point x="528.5" y="0" type="line"/>
      <point x="472" y="273" type="line"/>
      <point x="471.5" y="276" type="line"/>
    </contour>
    <contour>
      <point x="555.5" y="931" type="line"/>
      <point x="359" y="776" type="line"/>
      <point x="356" y="781" type="line"/>
      <point x="549" y="939" type="line"/>
    </contour>
  </outline>
</glyph>
<glyph name="Acircumflex" format="1">
  <advance width="582"/>
  <unicode hex="00C2"/>
  <outline>
    <contour>
      <point x="142.5" y="272" type="line"/>
      <point x="144" y="282" type="line"/>
      <point x="479" y="282" type="line"/>
      <point x="477.5" y="272" type="line"/>
    </contour>
    <contour>
      <point x="382.5" y="688" type="line"/>
      <point x="152.5" y="277" type="line"/>
      <point x="151" y="273" type="line"/>
      <point x="-1.5" y="0" type="line"/>
      <point x="-13.5" y="0" type="line"/>
      <point x="386.5" y="715" type="line"/>
      <point x="540.5" y="0" type="line"/>
      <point x="528.5" y="0" type="line"/>
      <point x="472" y="273" type="line"/>
      <point x="471.5" y="276" type="line"/>
    </contour>
    <contour>
      <point x="420" y="909.5" type="line"/>
      <point x="247.5" y="776" type="line"/>
      <point x="241.5" y="783" type="line"/>
      <point x="421" y="921.5" type="line"/>
      <point x="553" y="782" type="line"/>
      <point x="545.5" y="775" type="line"/>
    </contour>
  </outline>
</glyph>
<glyph name="Aring" format="2">
  <advance width="582"/>
  <unicode hex="00C5"/>
  <outline>
    <contour>
      <point x="142.5" y="272" type="line"/>
      <point x="144" y="282" type="line"/>
      <point x="479" y="282" type="line"/>
      <point x="477.5" y="272" type="line"/>
    </contour>
    <contour>
      <point x="382.5" y="688" type="line"/>
      <point x="152.5" y="277" type="line"/>
      <point x="151" y="273" type="line"/>
      <point x="-1.5" y="0" type="line"/>
      <point x="-13.5" y="0" type="line"/>
      <point x="386.5" y="715" type="line"/>
      <point x="540.5" y="0" type="line"/>
      <point x="528.5" y="0" type="line"/>
      <point x="472" y="273" type="line"/>
      <point x="471.5" y="276" type="line"/>
    </contour>
    <contour>
      <point x="302.5" y="808.5" type="curve" smooth="yes"/>
      <point x="311" y="864"/>
      <point x="365.5" y="908"/>
      <point x="419" y="907.5" type="curve" smooth="yes"/>
      <point x="472" y="907"/>
      <point x="509.5" y="861.5"/>
      <point x="501.5" y="807.5" type="curve" smooth="yes"/>
      <point x="493" y="752"/>
      <point x="438.5" y="708"/>
      <point x="385" y="708.5" type="curve" smooth="yes"/>
      <point x="332" y="709"/>
      <point x="294.5" y="754.5"/>
    </contour>
    <contour>
      <point x="312.5" y="808" type="curve" smooth="yes"/>
      <point x="305.5" y="760.5"/>
      <point x="338" y="719.5"/>
      <point x="386" y="718.5" type="curve" smooth="yes"/>
      <point x="434.5" y="717.5"/>
      <point x="484" y="759"/>
      <point x="491.5" y="808" type="curve" smooth="yes"/>
      <point x="498.5" y="855.5"/>
      <point x="466" y="896.5"/>
      <point x="418" y="897.5" type="curve" smooth="yes"/>
      <point x="369.5" y="898.5"/>
      <point x="320" y="857"/>
    </contour>
  </outline>
</glyph>
<glyph name="AE" format="1">
  <advance width="869"/>
  <unicode hex="00C6"/>
  <outline>
    <contour>
      <point x="221.5" y="280" type="line"/>
      <point x="223" y="290" type="line"/>
      <point x="505" y="290" type="line"/>
      <point x="503" y="280" type="line"/>
    </contour>
    <contour>
      <point x="563" y="700" type="line"/>
      <point x="576.5" y="699" type="line"/>
      <point x="-10" y="0" type="line"/>
      <point x="-23" y="0" type="line"/>
    </contour>
    <contour>
      <point x="455" y="0" type="line"/>
      <point x="457" y="10" type="line"/>
      <point x="766.5" y="10" type="line"/>
      <point x="765" y="0" type="line"/>
    </contour>
    <contour>
      <point x="576.5" y="690" type="line"/>
      <point x="563" y="700" type="line"/>
      <point x="884.5" y="700" type="line"/>
      <point x="882.5" y="690" type="line"/>
    </contour>
    <contour>
      <point x="520.5" y="384" type="line"/>
      <point x="522.5" y="394" type="line"/>
      <point x="812.5" y="394" type="line"/>
      <point x="811" y="384" type="line"/>
    </contour>
    <contour>
      <point x="568.5" y="699.5" type="line"/>
      <point x="579.5" y="699.5" type="line"/>
      <point x="458.5" y="0" type="line"/>
      <point x="447.5" y="0" type="line"/>
    </contour>
  </outline>
</glyph>
<glyph name="Ccedilla" format="2">
  <advance width="664"/>
  <unicode hex="00C7"/>
  <outline>
    <contour>
      <point x="93" y="350" type="curve" smooth="yes"/>
      <point x="67" y="173.5"/>
      <point x="153" y="6"/>
      <point x="342" y="4.5" type="curve" smooth="yes"/>
      <point x="436" y="4"/>
      <point x="510" y="35"/>
      <point x="575.5" y="87" type="curve"/>
      <point x="572.5" y="71.5" type="line"/>
      <point x="506.5" y="23"/>
      <point x="435.5" y="-8"/>
      <point x="341" y="-7.5" type="curve" smooth="yes"/>
      <point x="145" y="-6.5"/>
      <point x="54" y="165.5"/>
      <point x="81" y="350" type="curve" smooth="yes"/>
      <point x="111.5" y="545.5"/>
      <point x="264" y="707"/>
      <point x="462" y="708" type="curve" smooth="yes"/>
      <point x="550.5" y="708.5"/>
      <point x="612.5" y="681.5"/>
      <point x="667.5" y="628.5" type="curve"/>
      <point x="665" y="613.5" type="line"/>
      <point x="613.5" y="670.5"/>
      <point x="545" y="696.5"/>
      <point x="461" y="696" type="curve" smooth="yes"/>
      <point x="270" y="695"/>
      <point x="123" y="539"/>
    </contour>
    <contour>
      <point x="336" y="-1.5" type="line"/>
      <point x="348" y="-1.5" type="line"/>
      <point x="279.5" y="-76.5" type="line"/>
      <point x="303.5" y="-63.5"/>
      <point x="322.5" y="-52"/>
      <point x="351.5" y="-53.5" type="curve" smooth="yes"/>
      <point x="387.5" y="-55.5"/>
      <point x="415.5" y="-85"/>
      <point x="410.5" y="-127.5" type="curve" smooth="yes"/>
      <point x="403.5" y="-184.5"/>
      <point x="344.5" y="-221"/>
      <point x="290.5" y="-220.5" type="curve" smooth="yes"/>
      <point x="256" y="-220.5"/>
      <point x="234.5" y="-207.5"/>
      <point x="210" y="-183" type="curve"/>
      <point x="217.5" y="-177" type="line"/>
      <point x="241" y="-198"/>
      <point x="261" y="-210.5"/>
      <point x="291.5" y="-210.5" type="curve" smooth="yes"/>
      <point x="339" y="-210.5"/>
      <point x="393.5" y="-179"/>
      <point x="400.5" y="-127" type="curve" smooth="yes"/>
      <point x="405" y="-90"/>
      <point x="381.5" y="-65.5"/>
      <point x="350.5" y="-63.5" type="curve" smooth="yes"/>
      <point x="321" y="-61.5"/>
      <point x="291.5" y="-75"/>
      <point x="267" y="-88.5" type="curve"/>
    </contour>
  </outline>
</glyph>
<glyph name="Egrave" format="2">
  <advance width="494"/>
  <unicode hex="00C8"/>
  <outline>
    <contour>
      <point x="62" y="0" type="line"/>
      <point x="63.5" y="10" type="line"/>
      <point x="392" y="10" type="line"/>
      <point x="390.5" y="0" type="line"/>
    </contour>
    <contour>
      <point x="180" y="690" type="line"/>
      <point x="181.5" y="700" type="line"/>
      <point x="509.5" y="700" type="line"/>
      <point x="508" y="690" type="line"/>
    </contour>
    <contour>
      <point x="127.5" y="384" type="line"/>
      <point x="129.5" y="394" type="line"/>
      <point x="438" y="394" type="line"/>
      <point x="436.5" y="384" type="line"/>
    </contour>
    <contour>
      <point x="180" y="699.5" type="line"/>
      <point x="191" y="699.5" type="line"/>
      <point x="70.5" y="0" type="line"/>
      <point x="59.5" y="0" type="line"/>
    </contour>
    <contour>
      <point x="231.5" y="925" type="line"/>
      <point x="240" y="932.5" type="line"/>
      <point x="379" y="773" type="line"/>
      <point x="374.5" y="768.5" type="line"/>
    </contour>
  </outline>
</glyph>
<glyph name="Idieresis" format="1">
  <advance width="174"/>
  <unicode hex="00CF"/>
  <outline>
    <contour>
      <point x="175.5" y="699.5" type="line"/>
      <point x="185.5" y="699.5" type="line"/>
      <point x="64.5" y="0" type="line"/>
      <point x="54.5" y="0" type="line"/>
    </contour>
    <contour>
      <point x="253.5" y="799" type="curve" smooth="yes"/>
      <point x="254" y="804.5"/>
      <point x="260.5" y="810"/>
      <point x="266" y="810" type="curve" smooth="yes"/>
      <point x="271.5" y="810"/>
      <point x="276" y="805"/>
      <point x="275.5" y="799" type="curve" smooth="yes"/>
      <point x="275" y="793.5"/>
      <point x="268.5" y="788"/>
      <point x="263" y="788" type="curve" smooth="yes"/>
      <point x="257.5" y="788"/>
      <point x="253" y="793"/>
    </contour>
    <contour>
      <point x="118" y="799" type="curve" smooth="yes"/>
      <point x="118.5" y="804.5"/>
      <point x="125" y="810"/>
      <point x="130.5" y="810" type="curve" smooth="yes"/>
      <point x="136" y="810"/>
      <point x="140" y="805"/>
      <point x="139.5" y="799" type="curve" smooth="yes"/>
      <point x="139" y="793.5"/>
      <point x="132.5" y="788"/>
      <point x="127" y="788" type="curve" smooth="yes"/>
      <point x="121.5" y="788"/>
      <point x="117.5" y="793"/>
    </contour>
  </outline>
</glyph>
<glyph name="Ograve" format="2">
  <advance width="751"/>
  <unicode hex="00D2"/>
  <outline>
    <contour>
      <point x="92" y="350" type="curve" smooth="yes"/>
      <point x="65.5" y="171.5"/>
      <point x="156.5" y="3.5"/>
      <point x="348.5" y="3" type="curve" smooth="yes"/>
      <point x="542.5" y="2.5"/>
      <point x="694.5" y="161.5"/>
      <point x="724.5" y="350" type="curve" smooth="yes"/>
      <point x="751" y="528.5"/>
      <point x="660" y="696.5"/>
      <point x="468" y="697" type="curve" smooth="yes"/>
      <point x="274" y="697.5"/>
      <point x="122" y="538.5"/>
    </contour>
    <contour>
      <point x="81" y="350" type="curve" smooth="yes"/>
      <point x="111.5" y="545.5"/>
      <point x="270.5" y="708.5"/>
      <point x="468.5" y="708" type="curve" smooth="yes"/>
      <point x="664.5" y="707.5"/>
      <point x="762.5" y="535.5"/>
      <point x="735.5" y="350" type="curve" smooth="yes"/>
      <point x="705" y="154.5"/>
      <point x="546" y="-8.5"/>
      <point x="348" y="-8" type="curve" smooth="yes"/>
      <point x="152" y="-7.5"/>
      <point x="54" y="164.5"/>
    </contour>
    <contour>
      <point x="375" y="925" type="line"/>
      <point x="384" y="932.5" type="line"/>
      <point x="522.5" y="773" type="line"/>
      <point x="516" y="768.5" type="line"/>
    </contour>
  </outline>
</glyph>
<glyph name="multiply" format="1">
  <advance width="560"/>
  <unicode hex="00D7"/>
  <outline>
    <contour>
      <point x="66" y="47" type="line"/>
      <point x="60" y="54" type="line"/>
      <point x="291.5" y="254" type="line"/>
      <point x="128" y="456" type="line"/>
      <point x="135.5" y="463" type="line"/>
      <point x="297" y="260.5" type="line"/>
      <point x="528.5" y="462" type="line"/>
      <point x="534.5" y="455" type="line"/>
      <point x="302" y="254" type="line"/>
      <point x="464.5" y="53" type="line"/>
      <point x="457" y="46" type="line"/>
      <point x="296" y="247.5" type="line"/>
    </contour>
  </outline>
</glyph>
<glyph name="Uacute" format="1">
  <advance width="558"/>
  <unicode hex="00DA"/>
  <outline>
    <contour>
      <point x="175.5" y="699.5" type="line"/>
      <point x="186" y="699.5" type="line"/>
      <point x="103.5" y="220" type="line" smooth="yes"/>
      <point x="88.5" y="104"/>
      <point x="129" y="2"/>
      <point x="252" y="1.5" type="curve" smooth="yes"/>
      <point x="375" y="1"/>
      <point x="456" y="98"/>
      <point x="476" y="220" type="curve" smooth="yes"/>
      <point x="558.5" y="699.5" type="line"/>
      <point x="569.5" y="699.5" type="line"/>
      <point x="487.5" y="220" type="line" smooth="yes"/>
      <point x="466.5" y="92.5"/>
      <point x="386" y="-10"/>
      <point x="251.5" y="-9.5" type="curve" smooth="yes"/>
      <point x="117" y="-9"/>
      <point x="77" y="98.5"/>
      <point x="93" y="220" type="curve" smooth="yes"/>
    </contour>
    <contour>
      <point x="543" y="924" type="line"/>
      <point x="346.5" y="769" type="line"/>
      <point x="343" y="774" type="line"/>
      <point x="536" y="932" type="line"/>
    </contour>
  </outline>
</glyph>
<glyph name="Thorn" format="1">
  <advance width="504"/>
  <unicode hex="00DE"/>
  <outline>
    <contour>
      <point x="170.5" y="699.5" type="line"/>
      <point x="180.5" y="699.5" type="line"/>
      <point x="59.5" y="0" type="line"/>
      <point x="50" y="0" type="line"/>
    </contour>
    <contour>
      <point x="148" y="550" type="line"/>
      <point x="150" y="560" type="line"/>
      <point x="301" y="560" type="line"/>
      <point x="428" y="557.5"/>
      <point x="517" y="473.5"/>
      <point x="497" y="350" type="curve" smooth="yes"/>
      <point x="476" y="223.5"/>
      <point x="361.5" y="142.5"/>
      <point x="230" y="140" type="curve"/>
      <point x="78" y="140" type="line"/>
      <point x="80" y="150" type="line"/>
      <point x="231" y="150" type="line"/>
      <point x="353.5" y="153"/>
      <point x="466" y="234"/>
      <point x="486" y="350" type="curve" smooth="yes"/>
      <point x="505.5" y="469"/>
      <point x="419" y="547"/>
      <point x="300" y="550" type="curve"/>
    </contour>
  </outline>
</glyph>
<glyph name="germandbls" format="1">
  <advance width="514"/>
  <unicode hex="00DF"/>
  <outline>
    <contour>
      <point x="217" y="0" type="line"/>
      <point x="347" y="8"/>
      <point x="451" y="95.5"/>
      <point x="472.5" y="225" type="curve" smooth="yes"/>
      <point x="493.5" y="364"/>
      <point x="389" y="436.5"/>
      <point x="273.5" y="443" type="curve"/>
      <point x="274.5" y="449.5" type="line"/>
      <point x="415" y="443.5"/>
      <point x="504" y="354.5"/>
      <point x="482.5" y="225" type="curve" smooth="yes"/>
      <point x="460.5" y="89"/>
      <point x="351.5" y="-2.5"/>
      <point x="215.5" y="-9.5" type="curve"/>
    </contour>
    <contour>
      <point x="274" y="445.5" type="curve"/>
      <point x="275" y="453" type="line"/>
      <point x="382.5" y="457"/>
      <point x="479" y="495"/>
      <point x="498.5" y="606" type="curve" smooth="yes"/>
      <point x="515" y="699"/>
      <point x="472.5" y="779.5"/>
      <point x="356" y="779.5" type="curve" smooth="yes"/>
      <point x="255.5" y="779.5"/>
      <point x="180.5" y="698"/>
      <point x="163.5" y="606" type="curve" smooth="yes"/>
      <point x="59.5" y="0" type="line"/>
      <point x="50" y="0" type="line"/>
      <point x="153.5" y="606" type="line"/>
      <point x="172" y="708"/>
      <point x="250" y="789"/>
      <point x="356.5" y="789.5" type="curve" smooth="yes"/>
      <point x="479.5" y="790"/>
      <point x="525.5" y="708.5"/>
      <point x="508.5" y="605.5" type="curve" smooth="yes"/>
      <point x="488.5" y="499"/>
      <point x="407" y="449.5"/>
    </contour>
  </outline>
</glyph>
<glyph name="atilde" format="2">
  <advance width="525"/>
  <unicode hex="00E3"/>
  <outline>
    <contour>
      <point x="489.5" y="459.5" type="line"/>
      <point x="499.5" y="459.5" type="line"/>
      <point x="419.5" y="0" type="line"/>
      <point x="410" y="0" type="line"/>
    </contour>
    <contour>
      <point x="55.5" y="230" type="curve" smooth="yes"/>
      <point x="75" y="361.5"/>
      <point x="176.5" y="471"/>
      <point x="303" y="469.5" type="curve" smooth="yes"/>
      <point x="427.5" y="468"/>
      <point x="470.5" y="336.5"/>
      <point x="455" y="230" type="curve" smooth="yes"/>
      <point x="436.5" y="115.5"/>
      <point x="347" y="-9"/>
      <point x="222" y="-9.5" type="curve" smooth="yes"/>
      <point x="95.5" y="-10"/>
      <point x="38.5" y="105.5"/>
    </contour>
    <contour>
      <point x="65.5" y="230" type="curve" smooth="yes"/>
      <point x="49" y="111"/>
      <point x="103.5" y="-0.5"/>
      <point x="225.5" y="0.5" type="curve" smooth="yes"/>
      <point x="340" y="1.5"/>
      <point x="432" y="119.5"/>
      <point x="450" y="230" type="curve" smooth="yes"/>
      <point x="465" y="332"/>
      <point x="418.5" y="457.5"/>
      <point x="305" y="459.5" type="curve" smooth="yes"/>
      <point x="183.5" y="462"/>
      <point x="84.5" y="356"/>
    </contour>
    <contour>
      <point x="194.5" y="551.5" type="line"/>
      <point x="187.5" y="578"/>
      <point x="234" y="608.5"/>
      <point x="264.5" y="608.5" type="curve" smooth="yes"/>
      <point x="312" y="609"/>
      <point x="330" y="561.5"/>
      <point x="377" y="562.5" type="curve" smooth="yes"/>
      <point x="406" y="563"/>
      <point x="423" y="584"/>
      <point x="440" y="609.5" type="curve"/>
      <point x="450" y="606.5" type="line"/>
      <point x="431.5" y="577"/>
      <point x="408" y="554.5"/>
      <point x="376.5" y="554.5" type="curve" smooth="yes"/>
      <point x="329.5" y="554.5"/>
      <point x="308" y="601"/>
      <point x="266" y="600.5" type="curve" smooth="yes"/>
      <point x="229.5" y="600"/>
      <point x="213.5" y="574.5"/>
      <point x="204.5" y="550.5" type="curve"/>
    </contour>
  </outline>
</glyph>
<glyph name="adieresis" format="1">
  <advance width="525"/>
  <unicode hex="00E4"/>
  <outline>
    <contour>
      <point x="489.5" y="459.5" type="line"/>
      <point x="499.5" y="459.5" type="line"/>
      <point x="419.5" y="0" type="line"/>
      <point x="410" y="0" type="line"/>
    </contour>
    <contour>
      <point x="55.5" y="230" type="curve" smooth="yes"/>
      <point x="75" y="361.5"/>
      <point x="176.5" y="471"/>
      <point x="303" y="469.5" type="curve" smooth="yes"/>
      <point x="427.5" y="468"/>
      <point x="470.5" y="336.5"/>
      <point x="455" y="230" type="curve" smooth="yes"/>
      <point x="436.5" y="115.5"/>
      <point x="347" y="-9"/>
      <point x="222" y="-9.5" type="curve" smooth="yes"/>
      <point x="95.5" y="-10"/>
      <point x="38.5" y="105.5"/>
    </contour>
    <contour>
      <point x="65.5" y="230" type="curve" smooth="yes"/>
      <point x="49" y="111"/>
      <point x="103.5" y="-0.5"/>
      <point x="225.5" y="0.5" type="curve" smooth="yes"/>
      <point x="340" y="1.5"/>
      <point x="432" y="119.5"/>
      <point x="450" y="230" type="curve" smooth="yes"/>
      <point x="465" y="332"/>
      <point x="418.5" y="457.5"/>
      <point x="305" y="459.5" type="curve" smooth="yes"/>
      <point x="183.5" y="462"/>
      <point x="84.5" y="356"/>
    </contour>
    <contour>
      <point x="420" y="591" type="curve" smooth="yes"/>
      <point x="420.5" y="596.5"/>
      <point x="427" y="602"/>
      <point x="432.5" y="602" type="curve" smooth="yes"/>
      <point x="438" y="602"/>
      <point x="442" y="597"/>
      <point x="441.5" y="591" type="curve" smooth="yes"/>
      <point x="441" y="585.5"/>
      <point x="434.5" y="580"/>
      <point x="429" y="580" type="curve" smooth="yes"/>
      <point x="423.5" y="580"/>
      <point x="419.5" y="585"/>
    </contour>
    <contour>
      <point x="226" y="591" type="curve" smooth="yes"/>
      <point x="226.5" y="596.5"/>
      <point x="233" y="602"/>
      <point x="238.5" y="602" type="curve" smooth="yes"/>
      <point x="244" y="602"/>
      <point x="248" y="597"/>
      <point x="247.5" y="591" type="curve" smooth="yes"/>
      <point x="247" y="585.5"/>
      <point x="240.5" y="580"/>
      <point x="235" y="580" type="curve" smooth="yes"/>
      <point x="229.5" y="580"/>
      <point x="225.5" y="585"/>
    </contour>
  </outline>
</glyph>
<glyph name="aring" format="1">
  <advance width="525"/>
  <unicode hex="00E5"/>
  <outline>
    <contour>
      <point x="489.5" y="459.5" type="line"/>
      <point x="499.5" y="459.5" type="line"/>
      <point x="419.5" y="0" type="line"/>
      <point x="410" y="0" type="line"/>
    </contour>
    <contour>
      <point x="55.5" y="230" type="curve" smooth="yes"/>
      <point x="75" y="361.5"/>
      <point x="176.5" y="471"/>
      <point x="303" y="469.5" type="curve" smooth="yes"/>
      <point x="427.5" y="468"/>
      <point x="470.5" y="336.5"/>
      <point x="455" y="230" type="curve" smooth="yes"/>
      <point x="436.5" y="115.5"/>
      <point x="347" y="-9"/>
      <point x="222" y="-9.5" type="curve" smooth="yes"/>
      <point x="95.5" y="-10"/>
      <point x="38.5" y="105.5"/>
    </contour>
    <contour>
      <point x="65.5" y="230" type="curve" smooth="yes"/>
      <point x="49" y="111"/>
      <point x="103.5" y="-0.5"/>
      <point x="225.5" y="0.5" type="curve" smooth="yes"/>
      <point x="340" y="1.5"/>
      <point x="432" y="119.5"/>
      <point x="450" y="230" type="curve" smooth="yes"/>
      <point x="465" y="332"/>
      <point x="418.5" y="457.5"/>
      <point x="305" y="459.5" type="curve" smooth="yes"/>
      <point x="183.5" y="462"/>
      <point x="84.5" y="356"/>
    </contour>
    <contour>
      <point x="231.5" y="630.5" type="curve" smooth="yes"/>
      <point x="240" y="686"/>
      <point x="294" y="730"/>
      <point x="347.5" y="729.5" type="curve" smooth="yes"/>
      <point x="400.5" y="729"/>
      <point x="438" y="683.5"/>
      <point x="430" y="629.5" type="curve" smooth="yes"/>
      <point x="421.5" y="574"/>
      <point x="367.5" y="530"/>
      <point x="314" y="530.5" type="curve" smooth="yes"/>
      <point x="261" y="531"/>
      <point x="223.5" y="576.5"/>
    </contour>
    <contour>
      <point x="241" y="630" type="curve" smooth="yes"/>
      <point x="234" y="582.5"/>
      <point x="266.5" y="541.5"/>
      <point x="314.5" y="540.5" type="curve" smooth="yes"/>
      <point x="363" y="539.5"/>
      <point x="413" y="581"/>
      <point x="420.5" y="630" type="curve" smooth="yes"/>
      <point x="427.5" y="677.5"/>
      <point x="395" y="718.5"/>
      <point x="347" y="719.5" type="curve" smooth="yes"/>
      <point x="298.5" y="720.5"/>
      <point x="248.5" y="679"/>
    </contour>
  </outline>
</glyph>
<glyph name="eacute" format="2">
  <advance width="487"/>
  <unicode hex="00E9"/>
  <outline>
    <contour>
      <point x="68.5" y="228" type="line"/>
      <point x="70" y="238" type="line"/>
      <point x="451.5" y="238" type="line"/>
      <point x="474" y="343.5"/>
      <point x="416" y="458"/>
      <point x="302" y="459" type="curve" smooth="yes"/>
      <point x="187" y="460"/>
      <point x="90" y="357"/>
      <point x="71.5" y="233" type="curve"/>
      <point x="72" y="232.5" type="line"/>
      <point x="60.5" y="118.5"/>
      <point x="108.501" y="1.54834"/>
      <point x="225" y="0.5" type="curve" smooth="yes"/>
      <point x="325.497" y="-0.20166"/>
      <point x="384" y="59"/>
      <point x="428.5" y="112.5" type="curve"/>
      <point x="436" y="106" type="line"/>
      <point x="390.5" y="51.5"/>
      <point x="332.01" y="-9.85156"/>
      <point x="224.5" y="-9.5" type="curve" smooth="yes"/>
      <point x="103" y="-9"/>
      <point x="47.5" y="112.5"/>
      <point x="62" y="232" type="curve" smooth="yes"/>
      <point x="66" y="258.5"/>
      <point x="73" y="284"/>
      <point x="83.5" y="308" type="curve" smooth="yes"/>
      <point x="121" y="396.5"/>
      <point x="202.5" y="470"/>
      <point x="302" y="469.5" type="curve" smooth="yes"/>
      <point x="412" y="468.5"/>
      <point x="479.5" y="364.5"/>
      <point x="465.5" y="254" type="curve" smooth="yes"/>
      <point x="464" y="245.5"/>
      <point x="461.5" y="236"/>
      <point x="459.5" y="228" type="curve"/>
    </contour>
    <contour>
      <point x="487.13" y="684.505" type="line"/>
      <point x="294.63" y="529.505" type="line"/>
      <point x="289.63" y="534.505" type="line"/>
      <point x="480.13" y="692.505" type="line"/>
    </contour>
  </outline>
</glyph>
<glyph name="iacute" format="1">
  <advance width="184"/>
  <unicode hex="00ED"/>
  <outline>
    <contour>
      <point x="139.5" y="459.5" type="line"/>
      <point x="149" y="459.5" type="line"/>
      <point x="69.5" y="0" type="line"/>
      <point x="59.5" y="0" type="line"/>
    </contour>
    <contour>
      <point x="333.5" y="686" type="line"/>
      <point x="139" y="531" type="line"/>
      <point x="133.5" y="536" type="line"/>
      <point x="326.5" y="694" type="line"/>
    </contour>
  </outline>
</glyph>
<glyph name="eth" format="2">
  <advance width="520"/>
  <unicode hex="00F0"/>
  <outline>
    <contour>
      <point x="472.5" y="220" type="curve" smooth="yes"/>
      <point x="489.5" y="325"/>
      <point x="424.5" y="427"/>
      <point x="296" y="426.5" type="curve" smooth="yes"/>
      <point x="187" y="426"/>
      <point x="86.5" y="329.5"/>
      <point x="68.5" y="220" type="curve" smooth="yes"/>
      <point x="51" y="107"/>
      <point x="109" y="1"/>
      <point x="232.5" y="0.5" type="curve" smooth="yes"/>
      <point x="359.5" y="0"/>
      <point x="454" y="104.5"/>
    </contour>
    <contour>
      <point x="292" y="700" type="line"/>
      <point x="455" y="379" type="line" smooth="yes"/>
      <point x="476" y="334.5"/>
      <point x="491" y="274.5"/>
      <point x="482.5" y="220" type="curve" smooth="yes"/>
      <point x="463.5" y="93.5"/>
      <point x="365" y="-10"/>
      <point x="232" y="-9.5" type="curve" smooth="yes"/>
      <point x="99.5" y="-9"/>
      <point x="40" y="100"/>
      <point x="58.5" y="220.5" type="curve" smooth="yes"/>
      <point x="77.5" y="334.5"/>
      <point x="179" y="436.5"/>
      <point x="296.5" y="436.5" type="curve" smooth="yes"/>
      <point x="365" y="436.5"/>
      <point x="418.5" y="406"/>
      <point x="456" y="354.5" type="curve"/>
      <point x="456" y="355" type="line"/>
      <point x="280.5" y="700" type="line"/>
    </contour>
    <contour>
      <point x="211.5" y="575" type="line"/>
      <point x="213.5" y="585" type="line"/>
      <point x="475.5" y="585" type="line"/>
      <point x="474" y="575" type="line"/>
    </contour>
  </outline>
</glyph>
<glyph name="ocircumflex" format="1">
  <advance width="539"/>
  <unicode hex="00F4"/>
  <outline>
    <contour>
      <point x="55.5" y="230" type="curve" smooth="yes"/>
      <point x="76" y="361"/>
      <point x="188" y="470"/>
      <point x="322" y="469.5" type="curve" smooth="yes"/>
      <point x="454.5" y="469"/>
      <point x="527" y="355"/>
      <point x="508.5" y="230" type="curve" smooth="yes"/>
      <point x="488" y="99"/>
      <point x="375.5" y="-10"/>
      <point x="241.5" y="-9.5" type="curve" smooth="yes"/>
      <point x="109" y="-9"/>
      <point x="37" y="105"/>
    </contour>
    <contour>
      <point x="65.5" y="230" type="curve" smooth="yes"/>
      <point x="47.5" y="110"/>
      <point x="116" y="1"/>
      <point x="242" y="0.5" type="curve" smooth="yes"/>
      <point x="369.5" y="0"/>
      <point x="478.5" y="104"/>
      <point x="498.5" y="230" type="curve" smooth="yes"/>
      <point x="516.5" y="350"/>
      <point x="448" y="459"/>
      <point x="322" y="459.5" type="curve" smooth="yes"/>
      <point x="194.5" y="460"/>
      <point x="85.5" y="356"/>
    </contour>
    <contour>
      <point x="360" y="684.5" type="line"/>
      <point x="188" y="551" type="line"/>
      <point x="182" y="558" type="line"/>
      <point x="361.5" y="696.5" type="line"/>
      <point x="493.5" y="557" type="line"/>
      <point x="485.5" y="550" type="line"/>
    </contour>
  </outline>
</glyph>
<glyph name="otilde" format="1">
  <advance width="539"/>
  <unicode hex="00F5"/>
  <outline>
    <contour>
      <point x="55.5" y="230" type="curve" smooth="yes"/>
      <point x="76" y="361"/>
      <point x="188" y="470"/>
      <point x="322" y="469.5" type="curve" smooth="yes"/>
      <point x="454.5" y="469"/>
      <point x="527" y="355"/>
      <point x="508.5" y="230" type="curve" smooth="yes"/>
      <point x="488" y="99"/>
      <point x="375.5" y="-10"/>
      <point x="241.5" y="-9.5" type="curve" smooth="yes"/>
      <point x="109" y="-9"/>
      <point x="37" y="105"/>
    </contour>
    <contour>
      <point x="65.5" y="230" type="curve" smooth="yes"/>
      <point x="47.5" y="110"/>
      <point x="116" y="1"/>
      <point x="242" y="0.5" type="curve" smooth="yes"/>
      <point x="369.5" y="0"/>
      <point x="478.5" y="104"/>
      <point x="498.5" y="230" type="curve" smooth="yes"/>
      <point x="516.5" y="350"/>
      <point x="448" y="459"/>
      <point x="322" y="459.5" type="curve" smooth="yes"/>
      <point x="194.5" y="460"/>
      <point x="85.5" y="356"/>
    </contour>
    <contour>
      <point x="213.5" y="551.5" type="line"/>
      <point x="206.5" y="578"/>
      <point x="253.5" y="608.5"/>
      <point x="284" y="608.5" type="curve" smooth="yes"/>
      <point x="331.5" y="609"/>
      <point x="349.5" y="561.5"/>
      <point x="396.5" y="562.5" type="curve" smooth="yes"/>
      <point x="425.5" y="563"/>
      <point x="442.5" y="584"/>
      <point x="459.5" y="609.5" type="curve"/>
      <point x="469" y="606.5" type="line"/>
      <point x="450.5" y="577"/>
      <point x="427.5" y="554.5"/>
      <point x="396" y="554.5" type="curve" smooth="yes"/>
      <point x="349" y="554.5"/>
      <point x="327.5" y="601"/>
      <point x="285.5" y="600.5" type="curve" smooth="yes"/>
      <point x="249" y="600"/>
      <point x="232.5" y="574.5"/>
      <point x="223.5" y="550.5" type="curve"/>
    </contour>
  </outline>
</glyph>
<glyph name="odieresis" format="2">
  <advance width="539"/>
  <unicode hex="00F6"/>
  <outline>
    <contour>
      <point x="55.5" y="230" type="curve" smooth="yes"/>
      <point x="76" y="361"/>
      <point x="188" y="470"/>
      <point x="322" y="469.5" type="curve" smooth="yes"/>
      <point x="454.5" y="469"/>
      <point x="527" y="355"/>
      <point x="508.5" y="230" type="curve" smooth="yes"/>
      <point x="488" y="99"/>
      <point x="375.5" y="-10"/>
      <point x="241.5" y="-9.5" type="curve" smooth="yes"/>
      <point x="109" y="-9"/>
      <point x="37" y="105"/>
    </contour>
    <contour>
      <point x="65.5" y="230" type="curve" smooth="yes"/>
      <point x="47.5" y="110"/>
      <point x="116" y="1"/>
      <point x="242" y="0.5" type="curve" smooth="yes"/>
      <point x="369.5" y="0"/>
      <point x="478.5" y="104"/>
      <point x="498.5" y="230" type="curve" smooth="yes"/>
      <point x="516.5" y="350"/>
      <point x="448" y="459"/>
      <point x="322" y="459.5" type="curve" smooth="yes"/>
      <point x="194.5" y="460"/>
      <point x="85.5" y="356"/>
    </contour>
    <contour>
      <point x="424.5" y="561" type="curve" smooth="yes"/>
      <point x="425" y="566.5"/>
      <point x="431.5" y="572"/>
      <point x="437" y="572" type="curve" smooth="yes"/>
      <point x="442.5" y="572"/>
      <point x="446.5" y="567"/>
      <point x="446" y="561" type="curve" smooth="yes"/>
      <point x="445.5" y="555.5"/>
      <point x="439.5" y="550"/>
      <point x="434" y="550" type="curve" smooth="yes"/>
      <point x="428.5" y="550"/>
      <point x="424" y="555"/>
    </contour>
    <contour>
      <point x="230.5" y="561" type="curve" smooth="yes"/>
      <point x="231" y="566.5"/>
      <point x="237.5" y="572"/>
      <point x="243" y="572" type="curve" smooth="yes"/>
      <point x="248.5" y="572"/>
      <point x="252.5" y="567"/>
      <point x="252" y="561" type="curve" smooth="yes"/>
      <point x="251.5" y="555.5"/>
      <point x="245" y="550"/>
      <point x="239.5" y="550" type="curve" smooth="yes"/>
      <point x="234" y="550"/>
      <point x="230" y="555"/>
    </contour>
  </outline>
</glyph>
<glyph name="uacute" format="1">
  <advance width="460"/>
  <unicode hex="00FA"/>
  <outline>
    <contour>
      <point x="341" y="0" type="line"/>
      <point x="420.5" y="459.5" type="line"/>
      <point x="430.5" y="459.5" type="line"/>
      <point x="351" y="0" type="line"/>
    </contour>
    <contour>
      <point x="90.5" y="150" type="line" smooth="yes"/>
      <point x="80.5" y="72.5"/>
      <point x="95" y="1"/>
      <point x="184" y="0.5" type="curve" smooth="yes"/>
      <point x="280.5" y="-0.5"/>
      <point x="352.5" y="90.5"/>
      <point x="373" y="179" type="curve"/>
      <point x="378.5" y="179" type="line"/>
      <point x="358" y="81"/>
      <point x="284.5" y="-10.5"/>
      <point x="183" y="-9.5" type="curve" smooth="yes"/>
      <point x="88" y="-9"/>
      <point x="69.5" y="65.5"/>
      <point x="80.5" y="150" type="curve" smooth="yes"/>
      <point x="134.5" y="459.5" type="line"/>
      <point x="144.5" y="459.5" type="line"/>
    </contour>
    <contour>
      <point x="474" y="696" type="line"/>
      <point x="278.5" y="541" type="line"/>
      <point x="274" y="546" type="line"/>
      <point x="467" y="704" type="line"/>
    </contour>
  </outline>
</glyph>
<glyph name="yacute" format="1">
  <advance width="412"/>
  <unicode hex="00FD"/>
  <outline>
    <contour>
      <point x="455" y="459.5" type="line"/>
      <point x="46.5" y="-219.5" type="line"/>
      <point x="35.5" y="-219" type="line"/>
      <point x="180.5" y="20.5" type="line"/>
      <point x="61" y="460" type="line"/>
      <point x="73" y="460" type="line"/>
      <point x="190.5" y="20" type="line"/>
      <point x="179.5" y="20.5" type="line"/>
      <point x="444" y="459.5" type="line"/>
    </contour>
    <contour>
      <point x="448" y="686" type="line"/>
      <point x="252.5" y="531" type="line"/>
      <point x="248" y="536" type="line"/>
      <point x="441" y="694" type="line"/>
    </contour>
  </outline>
</glyph>
<glyph name="thorn" format="2">
  <advance width="525"/>
  <unicode hex="00FE"/>
  <outline>
    <contour>
      <point x="22" y="-219.5" type="line"/>
      <point x="12.5" y="-219.5" type="line"/>
      <point x="184" y="779.5" type="line"/>
      <point x="194" y="779.5" type="line"/>
    </contour>
    <contour>
      <point x="494" y="230" type="curve" smooth="yes"/>
      <point x="474.5" y="98.5"/>
      <point x="373" y="-11"/>
      <point x="246.5" y="-9.5" type="curve" smooth="yes"/>
      <point x="122" y="-8"/>
      <point x="79" y="123.5"/>
      <point x="94.5" y="230" type="curve" smooth="yes"/>
      <point x="113" y="344.5"/>
      <point x="202" y="469"/>
      <point x="327" y="469.5" type="curve" smooth="yes"/>
      <point x="453.5" y="470"/>
      <point x="511" y="354.5"/>
    </contour>
    <contour>
      <point x="484" y="230" type="curve" smooth="yes"/>
      <point x="500.5" y="349"/>
      <point x="445.5" y="460.5"/>
      <point x="323.5" y="459.5" type="curve" smooth="yes"/>
      <point x="209" y="458.5"/>
      <point x="117.5" y="340.5"/>
      <point x="99.5" y="230" type="curve" smooth="yes"/>
      <point x="84.5" y="128"/>
      <point x="130.5" y="2.5"/>
      <point x="244" y="0.5" type="curve" smooth="yes"/>
      <point x="365.5" y="-2"/>
      <point x="465" y="104"/>
    </contour>
  </outline>
</glyph>
<glyph name="ydieresis" format="2">
  <advance width="412"/>
  <unicode hex="00FF"/>
  <outline>
    <contour>
      <point x="455" y="459.5" type="line"/>
      <point x="46.5" y="-219.5" type="line"/>
      <point x="35.5" y="-219" type="line"/>
      <point x="180.5" y="20.5" type="line"/>
      <point x="61" y="460" type="line"/>
      <point x="73" y="460" type="line"/>
      <point x="190.5" y="20" type="line"/>
      <point x="179.5" y="20.5" type="line"/>
      <point x="444" y="459.5" type="line"/>
    </contour>
    <contour>
      <point x="342" y="561" type="curve" smooth="yes"/>
      <point x="342.5" y="566.5"/>
      <point x="348" y="572"/>
      <point x="353.5" y="572" type="curve" smooth="yes"/>
      <point x="359" y="572"/>
      <point x="364" y="566.5"/>
      <point x="363.5" y="560.5" type="curve" smooth="yes"/>
      <point x="363" y="555"/>
      <point x="356" y="550"/>
      <point x="350.5" y="550" type="curve" smooth="yes"/>
      <point x="345" y="550.5"/>
      <point x="341.5" y="555"/>
    </contour>
    <contour>
      <point x="187" y="561" type="curve" smooth="yes"/>
      <point x="187.5" y="566.5"/>
      <point x="193" y="572"/>
      <point x="198.5" y="572" type="curve" smooth="yes"/>
      <point x="204" y="572"/>
      <point x="209" y="566.5"/>
      <point x="208.5" y="560.5" type="curve" smooth="yes"/>
      <point x="208" y="555"/>
      <point x="200.5" y="550"/>
      <point x="195" y="550" type="curve" smooth="yes"/>
      <point x="189.5" y="550.5"/>
      <point x="186.5" y="555"/>
    </contour>
  </outline>
</glyph>
<glyph name="abreve" format="1">
  <advance width="525"/>
  <unicode hex="0103"/>
  <outline>
    <contour>
      <point x="489.5" y="459.5" type="line"/>
      <point x="499.5" y="459.5" type="line"/>
      <point x="419.5" y="0" type="line"/>
      <point x="410" y="0" type="line"/>
    </contour>
    <contour>
      <point x="55.5" y="230" type="curve" smooth="yes"/>
      <point x="75" y="361.5"/>
      <point x="176.5" y="471"/>
      <point x="303" y="469.5" type="curve" smooth="yes"/>
      <point x="427.5" y="468"/>
      <point x="470.5" y="336.5"/>
      <point x="455" y="230" type="curve" smooth="yes"/>
      <point x="436.5" y="115.5"/>
      <point x="347" y="-9"/>
      <point x="222" y="-9.5" type="curve" smooth="yes"/>
      <point x="95.5" y="-10"/>
      <point x="38.5" y="105.5"/>
    </contour>
    <contour>
      <point x="65.5" y="230" type="curve" smooth="yes"/>
      <point x="49" y="111"/>
      <point x="103.5" y="-0.5"/>
      <point x="225.5" y="0.5" type="curve" smooth="yes"/>
      <point x="340" y="1.5"/>
      <point x="432" y="119.5"/>
      <point x="450" y="230" type="curve" smooth="yes"/>
      <point x="465" y="332"/>
      <point x="418.5" y="457.5"/>
      <point x="305" y="459.5" type="curve" smooth="yes"/>
      <point x="183.5" y="462"/>
      <point x="84.5" y="356"/>
    </contour>
    <contour>
      <point x="188" y="690" type="curve"/>
      <point x="197.5" y="690" type="line"/>
      <point x="191.5" y="622"/>
      <point x="232.5" y="561"/>
      <point x="318" y="560.5" type="curve" smooth="yes"/>
      <point x="406" y="560"/>
      <point x="466" y="622"/>
      <point x="485.5" y="689" type="curve"/>
      <point x="495.5" y="689" type="line"/>
      <point x="475.5" y="617"/>
      <point x="415" y="550"/>
      <point x="317.5" y="550.5" type="curve" smooth="yes"/>
      <point x="222" y="551"/>
      <point x="181" y="617"/>
    </contour>
  </outline>
</glyph>
<glyph name="cacute" format="2">
  <advance width="473"/>
  <unicode hex="0107"/>
  <outline>
    <contour>
      <point x="60.5" y="230" type="curve" smooth="yes"/>
      <point x="42.5" y="110.5"/>
      <point x="111.5" y="1"/>
      <point x="237.5" y="0.5" type="curve" smooth="yes"/>
      <point x="305" y="0.5"/>
      <point x="363" y="32"/>
      <point x="399" y="60" type="curve"/>
      <point x="397" y="47.5" type="line"/>
      <point x="361" y="19"/>
      <point x="303" y="-9.5"/>
      <point x="236.5" y="-9.5" type="curve" smooth="yes"/>
      <point x="104" y="-9.5"/>
      <point x="32" y="105"/>
      <point x="50.5" y="230" type="curve" smooth="yes"/>
      <point x="71" y="361.5"/>
      <point x="183.5" y="470"/>
      <point x="317.5" y="469.5" type="curve" smooth="yes"/>
      <point x="379.5" y="469.5"/>
      <point x="431" y="443"/>
      <point x="459" y="412" type="curve"/>
      <point x="457" y="399.5" type="line"/>
      <point x="430.5" y="431"/>
      <point x="379.5" y="459.5"/>
      <point x="317" y="459.5" type="curve" smooth="yes"/>
      <point x="189.5" y="459.5"/>
      <point x="81" y="356"/>
    </contour>
    <contour>
      <point x="498" y="696" type="line"/>
      <point x="303.5" y="541" type="line"/>
      <point x="298" y="546" type="line"/>
      <point x="491.5" y="704" type="line"/>
    </contour>
  </outline>
</glyph>
<glyph name="ccircumflex" format="2">
  <advance width="473"/>
  <unicode hex="0109"/>
  <outline>
    <contour>
      <point x="60.5" y="230" type="curve" smooth="yes"/>
      <point x="42.5" y="110.5"/>
      <point x="111.5" y="1"/>
      <point x="237.5" y="0.5" type="curve" smooth="yes"/>
      <point x="305" y="0.5"/>
      <point x="363" y="32"/>
      <point x="399" y="60" type="curve"/>
      <point x="397" y="47.5" type="line"/>
      <point x="361" y="19"/>
      <point x="303" y="-9.5"/>
      <point x="236.5" y="-9.5" type="curve" smooth="yes"/>
      <point x="104" y="-9.5"/>
      <point x="32" y="105"/>
      <point x="50.5" y="230" type="curve" smooth="yes"/>
      <point x="71" y="361.5"/>
      <point x="183.5" y="470"/>
      <point x="317.5" y="469.5" type="curve" smooth="yes"/>
      <point x="379.5" y="469.5"/>
      <point x="431" y="443"/>
      <point x="459" y="412" type="curve"/>
      <point x="457" y="399.5" type="line"/>
      <point x="430.5" y="431"/>
      <point x="379.5" y="459.5"/>
      <point x="317" y="459.5" type="curve" smooth="yes"/>
      <point x="189.5" y="459.5"/>
      <point x="81" y="356"/>
    </contour>
    <contour>
      <point x="352" y="664.5" type="line"/>
      <point x="179.5" y="531" type="line"/>
      <point x="173.5" y="538" type="line"/>
      <point x="353" y="676.5" type="line"/>
      <point x="485" y="537" type="line"/>
      <point x="477.5" y="530" type="line"/>
    </contour>
  </outline>
</glyph>
<glyph name="cdotaccent" format="1">
  <advance width="473"/>
  <unicode hex="010B"/>
  <outline>
    <contour>
      <point x="60.5" y="230" type="curve" smooth="yes"/>
      <point x="42.5" y="110.5"/>
      <point x="111.5" y="1"/>
      <point x="237.5" y="0.5" type="curve" smooth="yes"/>
      <point x="305" y="0.5"/>
      <point x="363" y="32"/>
      <point x="399" y="60" type="curve"/>
      <point x="397" y="47.5" type="line"/>
      <point x="361" y="19"/>
      <point x="303" y="-9.5"/>
      <point x="236.5" y="-9.5" type="curve" smooth="yes"/>
      <point x="104" y="-9.5"/>
      <point x="32" y="105"/>
      <point x="50.5" y="230" type="curve" smooth="yes"/>
      <point x="71" y="361.5"/>
      <point x="183.5" y="470"/>
      <point x="317.5" y="469.5" type="curve" smooth="yes"/>
      <point x="379.5" y="469.5"/>
      <point x="431" y="443"/>
      <point x="459" y="412" type="curve"/>
      <point x="457" y="399.5" type="line"/>
      <point x="430.5" y="431"/>
      <point x="379.5" y="459.5"/>
      <point x="317" y="459.5" type="curve" smooth="yes"/>
      <point x="189.5" y="459.5"/>
      <point x="81" y="356"/>
    </contour>
    <contour>
      <point x="321" y="551" type="curve" smooth="yes"/>
      <point x="321.5" y="556.5"/>
      <point x="328" y="562"/>
      <point x="333.5" y="562" type="curve" smooth="yes"/>
      <point x="339" y="562"/>
      <point x="343" y="557"/>
      <point x="342.5" y="551" type="curve" smooth="yes"/>
      <point x="342" y="545.5"/>
      <point x="335.5" y="540"/>
      <point x="330" y="540" type="curve" smooth="yes"/>
      <point x="324.5" y="540"/>
      <point x="320.5" y="545"/>
    </contour>
  </outline>
</glyph>
<glyph name="Eogonek" format="1">
  <advance width="494"/>
  <unicode hex="0118"/>
  <outline>
    <contour>
      <point x="62" y="0" type="line"/>
      <point x="63.5" y="10" type="line"/>
      <point x="392" y="10" type="line"/>
      <point x="390.5" y="0" type="line"/>
    </contour>
    <contour>
      <point x="180" y="690" type="line"/>
      <point x="181.5" y="700" type="line"/>
      <point x="509.5" y="700" type="line"/>
      <point x="508" y="690" type="line"/>
    </contour>
    <contour>
      <point x="127.5" y="384" type="line"/>
      <point x="129.5" y="394" type="line"/>
      <point x="438" y="394" type="line"/>
      <point x="436.5" y="384" type="line"/>
    </contour>
    <contour>
      <point x="180" y="699.5" type="line"/>
      <point x="191" y="699.5" type="line"/>
      <point x="70.5" y="0" type="line"/>
      <point x="59.5" y="0" type="line"/>
    </contour>
    <contour>
      <point x="393.5" y="-173.5" type="curve"/>
      <point x="399.5" y="-181" type="line"/>
      <point x="376" y="-201"/>
      <point x="338.5" y="-220"/>
      <point x="297.5" y="-219.5" type="curve" smooth="yes"/>
      <point x="242" y="-219"/>
      <point x="203.5" y="-189.5"/>
      <point x="210.5" y="-139.5" type="curve" smooth="yes"/>
      <point x="221.5" y="-65"/>
      <point x="316.5" y="-23.5"/>
      <point x="385" y="9.5" type="curve"/>
      <point x="390.5" y="0" type="line"/>
      <point x="325.5" y="-31"/>
      <point x="230.5" y="-73.5"/>
      <point x="220.5" y="-140" type="curve" smooth="yes"/>
      <point x="214.5" y="-185"/>
      <point x="253.5" y="-209"/>
      <point x="298.5" y="-209.5" type="curve" smooth="yes"/>
      <point x="336.5" y="-210"/>
      <point x="371" y="-191"/>
    </contour>
  </outline>
</glyph>
<glyph name="eogonek" format="1">
  <advance width="487"/>
  <unicode hex="0119"/>
  <outline>
    <contour>
      <point x="68.5" y="228" type="line"/>
      <point x="70" y="238" type="line"/>
      <point x="451.5" y="238" type="line"/>
      <point x="474" y="343.5"/>
      <point x="416" y="458"/>
      <point x="302" y="459" type="curve" smooth="yes"/>
      <point x="187" y="460"/>
      <point x="90" y="357"/>
      <point x="71.5" y="233" type="curve"/>
      <point x="72" y="232.5" type="line"/>
      <point x="60.5" y="118.5"/>
      <point x="108.501" y="1.54834"/>
      <point x="225" y="0.5" type="curve" smooth="yes"/>
      <point x="325.497" y="-0.20166"/>
      <point x="384" y="59"/>
      <point x="428.5" y="112.5" type="curve"/>
      <point x="436" y="106" type="line"/>
      <point x="390.5" y="51.5"/>
      <point x="332.01" y="-9.85156"/>
      <point x="224.5" y="-9.5" type="curve" smooth="yes"/>
      <point x="103" y="-9"/>
      <point x="47.5" y="112.5"/>
      <point x="62" y="232" type="curve" smooth="yes"/>
      <point x="66" y="258.5"/>
      <point x="73" y="284"/>
      <point x="83.5" y="308" type="curve" smooth="yes"/>
      <point x="121" y="396.5"/>
      <point x="202.5" y="470"/>
      <point x="302" y="469.5" type="curve" smooth="yes"/>
      <point x="412" y="468.5"/>
      <point x="479.5" y="364.5"/>
      <point x="465.5" y="254" type="curve" smooth="yes"/>
      <point x="464" y="245.5"/>
      <point x="461.5" y="236"/>
      <point x="459.5" y="228" type="curve"/>
    </contour>
    <contour>
      <point x="237.5" y="-177" type="curve"/>
      <point x="243" y="-184" type="line"/>
      <point x="219.5" y="-204"/>
      <point x="183" y="-223.5"/>
      <point x="142" y="-223" type="curve" smooth="yes"/>
      <point x="86.5" y="-222.5"/>
      <point x="48" y="-193"/>
      <point x="54" y="-143" type="curve" smooth="yes"/>
      <point x="63.5" y="-69"/>
      <point x="157" y="-32.5"/>
      <point x="224.5" y="0" type="curve"/>
      <point x="231" y="-9" type="line"/>
      <point x="166.5" y="-40"/>
      <point x="72.5" y="-75.5"/>
      <point x="63.5" y="-143.5" type="curve" smooth="yes"/>
      <point x="58.5" y="-188.5"/>
      <point x="97.5" y="-212.5"/>
      <point x="142.5" y="-213" type="curve" smooth="yes"/>
      <point x="180.5" y="-213.5"/>
      <point x="215" y="-195"/>
    </contour>
  </outline>
</glyph>
<glyph name="Gbreve" format="2">
  <advance width="742"/>
  <unicode hex="011E"/>
  <outline>
    <contour>
      <point x="437" y="330" type="line"/>
      <point x="438.5" y="340" type="line"/>
      <point x="720" y="339.5" type="line"/>
      <point x="685" y="162.5"/>
      <point x="547.5" y="-7.5"/>
      <point x="350.5" y="-7.5" type="curve" smooth="yes"/>
      <point x="154.5" y="-7.5"/>
      <point x="54" y="164.5"/>
      <point x="81" y="350" type="curve" smooth="yes"/>
      <point x="111.5" y="546"/>
      <point x="273" y="708.5"/>
      <point x="471.5" y="708" type="curve" smooth="yes"/>
      <point x="587.5" y="708"/>
      <point x="667.5" y="646"/>
      <point x="716.5" y="556" type="curve"/>
      <point x="706" y="550" type="line"/>
      <point x="665.5" y="637.5"/>
      <point x="581" y="697"/>
      <point x="471" y="697" type="curve" smooth="yes"/>
      <point x="276.5" y="697.5"/>
      <point x="122.5" y="540.5"/>
      <point x="92" y="350" type="curve" smooth="yes"/>
      <point x="65.5" y="172"/>
      <point x="159" y="3.5"/>
      <point x="351.5" y="3.5" type="curve" smooth="yes"/>
      <point x="539" y="3.5"/>
      <point x="670.5" y="162"/>
      <point x="708" y="329.5" type="curve"/>
    </contour>
    <contour>
      <point x="353" y="908" type="curve"/>
      <point x="363" y="908" type="line"/>
      <point x="357" y="840"/>
      <point x="398" y="779"/>
      <point x="483.5" y="778.5" type="curve" smooth="yes"/>
      <point x="571.5" y="778"/>
      <point x="631" y="840"/>
      <point x="650.5" y="907" type="curve"/>
      <point x="660.5" y="907" type="line"/>
      <point x="640.5" y="835"/>
      <point x="580.5" y="768"/>
      <point x="483" y="768.5" type="curve" smooth="yes"/>
      <point x="387.5" y="769"/>
      <point x="346" y="835"/>
    </contour>
  </outline>
</glyph>
<glyph name="hbar" format="2">
  <advance width="509"/>
  <unicode hex="0127"/>
  <outline>
    <contour>
      <point x="199" y="779.5" type="line"/>
      <point x="64.5" y="0" type="line"/>
      <point x="54.5" y="0" type="line"/>
      <point x="189" y="779.5" type="line"/>
    </contour>
    <contour>
      <point x="396.5" y="320" type="line" smooth="yes"/>
      <point x="406" y="392.5"/>
      <point x="388" y="458.5"/>
      <point x="301.5" y="459.5" type="curve" smooth="yes"/>
      <point x="205" y="460.5"/>
      <point x="132.5" y="369"/>
      <point x="112" y="281" type="curve"/>
      <point x="107" y="281" type="line"/>
      <point x="127.5" y="379"/>
      <point x="200.5" y="470"/>
      <point x="302" y="469.5" type="curve" smooth="yes"/>
      <point x="394" y="469"/>
      <point x="417" y="399"/>
      <point x="406.5" y="320" type="curve" smooth="yes"/>
      <point x="350.5" y="0" type="line"/>
      <point x="341" y="0" type="line"/>
    </contour>
    <contour>
      <point x="95.5" y="690" type="line"/>
      <point x="97" y="700" type="line"/>
      <point x="400" y="700" type="line"/>
      <point x="398.5" y="690" type="line"/>
    </contour>
  </outline>
</glyph>
<glyph name="Itilde" format="2">
  <advance width="174"/>
  <unicode hex="0128"/>
  <outline>
    <contour>
      <point x="175.5" y="699.5" type="line"/>
      <point x="185.5" y="699.5" type="line"/>
      <point x="64.5" y="0" type="line"/>
      <point x="54.5" y="0" type="line"/>
    </contour>
    <contour>
      <point x="89.5" y="831.5" type="line"/>
      <point x="99" y="859.5"/>
      <point x="119" y="888.5"/>
      <point x="160" y="888.5" type="curve" smooth="yes"/>
      <point x="207.5" y="888.5"/>
      <point x="225.5" y="841.5"/>
      <point x="272.5" y="842.5" type="curve" smooth="yes"/>
      <point x="301.5" y="843"/>
      <point x="318.5" y="864"/>
      <point x="335.5" y="889.5" type="curve"/>
      <point x="344.5" y="886.5" type="line"/>
      <point x="326" y="857"/>
      <point x="303" y="834.5"/>
      <point x="271" y="834.5" type="curve" smooth="yes"/>
      <point x="224" y="834.5"/>
      <point x="203.5" y="880"/>
      <point x="161.5" y="880.5" type="curve" smooth="yes"/>
      <point x="124.5" y="881"/>
      <point x="107" y="855"/>
      <point x="98.5" y="830.5" type="curve"/>
    </contour>
  </outline>
</glyph>
<glyph name="Imacron" format="2">
  <advance width="174"/>
  <unicode hex="012A"/>
  <outline>
    <contour>
      <point x="175.5" y="699.5" type="line"/>
      <point x="185.5" y="699.5" type="line"/>
      <point x="64.5" y="0" type="line"/>
      <point x="54.5" y="0" type="line"/>
    </contour>
    <contour>
      <point x="65" y="835" type="line"/>
      <point x="66.5" y="845" type="line"/>
      <point x="406.5" y="845" type="line"/>
      <point x="404.5" y="835" type="line"/>
    </contour>
  </outline>
</glyph>
<glyph name="Idotaccent" format="2">
  <advance width="174"/>
  <unicode hex="0130"/>
  <outline>
    <contour>
      <point x="175.5" y="699.5" type="line"/>
      <point x="185.5" y="699.5" type="line"/>
      <point x="64.5" y="0" type="line"/>
      <point x="54.5" y="0" type="line"/>
    </contour>
    <contour>
      <point x="183.5" y="786" type="curve" smooth="yes"/>
      <point x="184" y="791.5"/>
      <point x="190.5" y="797"/>
      <point x="196" y="797" type="curve" smooth="yes"/>
      <point x="201.5" y="797"/>
      <point x="205.5" y="792"/>
      <point x="205" y="786" type="curve" smooth="yes"/>
      <point x="204.5" y="780.5"/>
      <point x="198" y="775"/>
      <point x="192.5" y="775" type="curve" smooth="yes"/>
      <point x="187" y="775"/>
      <point x="183" y="780"/>
    </contour>
  </outline>
</glyph>
<glyph name="dotlessi" format="2">
  <advance width="184"/>
  <unicode hex="0131"/>
  <outline>
    <contour>
      <point x="139.5" y="459.5" type="line"/>
      <point x="149" y="459.5" type="line"/>
      <point x="69.5" y="0" type="line"/>
      <point x="59.5" y="0" type="line"/>
    </contour>
  </outline>
</glyph>
<glyph name="IJ" format="2">
  <advance width="475"/>
  <unicode hex="0132"/>
  <outline>
    <contour>
      <point x="64.5" y="-158.5" type="line"/>
      <point x="88" y="-184"/>
      <point x="121" y="-208"/>
      <point x="163" y="-208.5" type="curve" smooth="yes"/>
      <point x="253" y="-210"/>
      <point x="286.5" y="-145"/>
      <point x="300" y="-50" type="curve" smooth="yes"/>
      <point x="428.5" y="699.5" type="line"/>
      <point x="439.5" y="699.5" type="line"/>
      <point x="309.5" y="-60" type="line" smooth="yes"/>
      <point x="295.5" y="-153"/>
      <point x="256.5" y="-221"/>
      <point x="163" y="-219.5" type="curve" smooth="yes"/>
      <point x="115.5" y="-219"/>
      <point x="76.5" y="-190.5"/>
      <point x="57" y="-165" type="curve"/>
    </contour>
    <contour>
      <point x="175.5" y="699.5" type="line"/>
      <point x="185.5" y="699.5" type="line"/>
      <point x="64.5" y="0" type="line"/>
      <point x="54.5" y="0" type="line"/>
    </contour>
  </outline>
</glyph>
<glyph name="Lacute" format="2">
  <advance width="417"/>
  <unicode hex="0139"/>
  <outline>
    <contour>
      <point x="180" y="699.5" type="line"/>
      <point x="190" y="699.5" type="line"/>
      <point x="71.5" y="10" type="line"/>
      <point x="372.5" y="10" type="line"/>
      <point x="371" y="0" type="line"/>
      <point x="60" y="0" type="line"/>
    </contour>
    <contour>
      <point x="545" y="924" type="line"/>
      <point x="348" y="769" type="line"/>
      <point x="345" y="774" type="line"/>
      <point x="538" y="932" type="line"/>
    </contour>
  </outline>
</glyph>
<glyph name="lslash" format="2">
  <advance width="155"/>
  <unicode hex="0142"/>
  <outline>
    <contour>
      <point x="31" y="388" type="line"/>
      <point x="25" y="396" type="line"/>
      <point x="226" y="544" type="line"/>
      <point x="232" y="536" type="line"/>
    </contour>
    <contour>
      <point x="179.5" y="779.5" type="line"/>
      <point x="189" y="779.5" type="line"/>
      <point x="55" y="0" type="line"/>
      <point x="45" y="0" type="line"/>
    </contour>
  </outline>
</glyph>
<glyph name="Nacute" format="1">
  <advance width="645"/>
  <unicode hex="0143"/>
  <outline>
    <contour>
      <point x="659.5" y="699.5" type="line"/>
      <point x="670.5" y="699.5" type="line"/>
      <point x="547.5" y="-15" type="line"/>
      <point x="148.5" y="678" type="line"/>
      <point x="31.5" y="0" type="line"/>
      <point x="20.5" y="0" type="line"/>
      <point x="143.5" y="715" type="line"/>
      <point x="542" y="17" type="line"/>
    </contour>
    <contour>
      <point x="591" y="911" type="line"/>
      <point x="394.5" y="756" type="line"/>
      <point x="391" y="761" type="line"/>
      <point x="584.5" y="919" type="line"/>
    </contour>
  </outline>
</glyph>
<glyph name="napostrophe" format="2">
  <advance width="596"/>
  <unicode hex="0149"/>
  <outline>
    <contour>
      <point x="231.5" y="459.5" type="line"/>
      <point x="152" y="0" type="line"/>
      <point x="142" y="0" type="line"/>
      <point x="222" y="459.5" type="line"/>
    </contour>
    <contour>
      <point x="484" y="320" type="line" smooth="yes"/>
      <point x="493.5" y="392.5"/>
      <point x="475.5" y="458.5"/>
      <point x="389" y="459.5" type="curve" smooth="yes"/>
      <point x="292.5" y="460.5"/>
      <point x="220" y="369"/>
      <point x="199.5" y="281" type="curve"/>
      <point x="194.5" y="281" type="line"/>
      <point x="215" y="379"/>
      <point x="288" y="470"/>
      <point x="389.5" y="469.5" type="curve" smooth="yes"/>
      <point x="481.5" y="469"/>
      <point x="504" y="399"/>
      <point x="493.5" y="320" type="curve" smooth="yes"/>
      <point x="438" y="0" type="line"/>
      <point x="428" y="0" type="line"/>
    </contour>
    <contour>
      <point x="261" y="699" type="line"/>
      <point x="273" y="699" type="line"/>
      <point x="139.5" y="471" type="line"/>
      <point x="129.5" y="471" type="line"/>
    </contour>
  </outline>
</glyph>
<glyph name="uni0157" format="2">
  <advance width="281"/>
  <unicode hex="0157"/>
  <outline>
    <contour>
      <point x="144.5" y="459.5" type="line"/>
      <point x="64.5" y="0" type="line"/>
      <point x="54.5" y="0" type="line"/>
      <point x="134.5" y="459.5" type="line"/>
    </contour>
    <contour>
      <point x="310" y="440" type="line"/>
      <point x="294" y="450.5"/>
      <point x="277" y="459"/>
      <point x="258" y="459.5" type="curve" smooth="yes"/>
      <point x="172.5" y="462"/>
      <point x="127" y="362.5"/>
      <point x="112" y="280.5" type="curve"/>
      <point x="107" y="280.5" type="line"/>
      <point x="122.5" y="371.5"/>
      <point x="167.5" y="473"/>
      <point x="258.5" y="469.5" type="curve" smooth="yes"/>
      <point x="280" y="469"/>
      <point x="299.5" y="458.5"/>
      <point x="316.5" y="447.5" type="curve"/>
    </contour>
    <contour>
      <point x="57.5" y="-61" type="line"/>
      <point x="67.5" y="-66" type="line"/>
      <point x="-83.5" y="-314" type="line"/>
      <point x="-89.5" y="-312" type="line"/>
    </contour>
  </outline>
</glyph>
<glyph name="Rcaron" format="1">
  <advance width="454"/>
  <unicode hex="0158"/>
  <outline>
    <contour>
      <point x="220" y="317" type="line"/>
      <point x="231.5" y="317" type="line"/>
      <point x="393" y="0" type="line"/>
      <point x="380" y="0" type="line"/>
    </contour>
    <contour>
      <point x="180" y="699.5" type="line"/>
      <point x="191" y="699.5" type="line"/>
      <point x="70.5" y="0" type="line"/>
      <point x="59.5" y="0" type="line"/>
    </contour>
    <contour>
      <point x="179.5" y="689" type="line"/>
      <point x="181.5" y="700" type="line"/>
      <point x="291" y="700" type="line"/>
      <point x="415" y="698"/>
      <point x="507.5" y="631"/>
      <point x="487.5" y="507" type="curve" smooth="yes"/>
      <point x="467" y="381"/>
      <point x="355.5" y="316"/>
      <point x="226" y="314" type="curve"/>
      <point x="115.5" y="314" type="line"/>
      <point x="117.5" y="324" type="line"/>
      <point x="226.5" y="324" type="line"/>
      <point x="351.5" y="326"/>
      <point x="457" y="387"/>
      <point x="477" y="507" type="curve" smooth="yes"/>
      <point x="496.5" y="625.5"/>
      <point x="409.5" y="686.5"/>
      <point x="290" y="689" type="curve"/>
    </contour>
    <contour>
      <point x="326.5" y="780.5" type="line"/>
      <point x="498" y="915" type="line"/>
      <point x="505" y="907" type="line"/>
      <point x="325.5" y="768.5" type="line"/>
      <point x="193.5" y="908" type="line"/>
      <point x="202" y="916" type="line"/>
    </contour>
  </outline>
</glyph>
<glyph name="scedilla" format="2">
  <advance width="391"/>
  <unicode hex="015F"/>
  <outline>
    <contour>
      <point x="46.5" y="147" type="line"/>
      <point x="50.5" y="78"/>
      <point x="73.5" y="0.5"/>
      <point x="164.5" y="0" type="curve" smooth="yes"/>
      <point x="234" y="-0.5"/>
      <point x="295.5" y="49"/>
      <point x="305.5" y="117" type="curve" smooth="yes"/>
      <point x="315.5" y="181.5"/>
      <point x="263.5" y="210.5"/>
      <point x="204" y="231" type="curve" smooth="yes"/>
      <point x="138" y="254"/>
      <point x="86.5" y="280"/>
      <point x="99" y="359" type="curve" smooth="yes"/>
      <point x="110.5" y="426.5"/>
      <point x="174" y="468"/>
      <point x="243.5" y="467.5" type="curve" smooth="yes"/>
      <point x="315" y="467"/>
      <point x="344.5" y="421.5"/>
      <point x="357" y="368" type="curve"/>
      <point x="347" y="365" type="line"/>
      <point x="335" y="414.5"/>
      <point x="308" y="457"/>
      <point x="243" y="457.5" type="curve" smooth="yes"/>
      <point x="180" y="458"/>
      <point x="119" y="420.5"/>
      <point x="108.5" y="359" type="curve" smooth="yes"/>
      <point x="96" y="284.5"/>
      <point x="148" y="261.5"/>
      <point x="210.5" y="240" type="curve" smooth="yes"/>
      <point x="271" y="219"/>
      <point x="325.5" y="186"/>
      <point x="315.5" y="117" type="curve" smooth="yes"/>
      <point x="305" y="42.5"/>
      <point x="240" y="-10"/>
      <point x="164" y="-9.5" type="curve" smooth="yes"/>
      <point x="66" y="-9"/>
      <point x="40" y="69.5"/>
      <point x="36.5" y="144" type="curve"/>
    </contour>
    <contour>
      <point x="159" y="-3.5" type="line"/>
      <point x="171" y="-3.5" type="line"/>
      <point x="102.5" y="-78.5" type="line"/>
      <point x="126.5" y="-65.5"/>
      <point x="145.5" y="-54"/>
      <point x="174.5" y="-55.5" type="curve" smooth="yes"/>
      <point x="210.5" y="-57.5"/>
      <point x="238.5" y="-87"/>
      <point x="233.5" y="-129.5" type="curve" smooth="yes"/>
      <point x="226.5" y="-186.5"/>
      <point x="167.5" y="-223"/>
      <point x="113.5" y="-222.5" type="curve" smooth="yes"/>
      <point x="79" y="-222.5"/>
      <point x="57.5" y="-209.5"/>
      <point x="33" y="-185" type="curve"/>
      <point x="40.5" y="-179" type="line"/>
      <point x="64" y="-200"/>
      <point x="84" y="-212.5"/>
      <point x="114.5" y="-212.5" type="curve" smooth="yes"/>
      <point x="162" y="-212.5"/>
      <point x="217" y="-181"/>
      <point x="224" y="-129" type="curve" smooth="yes"/>
      <point x="228.5" y="-92"/>
      <point x="205" y="-67.5"/>
      <point x="174" y="-65.5" type="curve" smooth="yes"/>
      <point x="144.5" y="-63.5"/>
      <point x="114.5" y="-77"/>
      <point x="90" y="-90.5" type="curve"/>
    </contour>
  </outline>
</glyph>
<glyph name="Tcaron" format="2">
  <advance width="418"/>
  <unicode hex="0164"/>
  <outline>
    <contour>
      <point x="110" y="689" type="line"/>
      <point x="111.5" y="700" type="line"/>
      <point x="491.5" y="700" type="line"/>
      <point x="489.5" y="689" type="line"/>
      <point x="305" y="689" type="line"/>
      <point x="187" y="0" type="line"/>
      <point x="176" y="0" type="line"/>
      <point x="294" y="689" type="line"/>
    </contour>
    <contour>
      <point x="314.75" y="780.5" type="line"/>
      <point x="486.25" y="915" type="line"/>
      <point x="492.75" y="907" type="line"/>
      <point x="313.25" y="768.5" type="line"/>
      <point x="181.25" y="908" type="line"/>
      <point x="190.25" y="916" type="line"/>
    </contour>
  </outline>
</glyph>
<glyph name="Ubreve" format="2">
  <advance width="558"/>
  <unicode hex="016C"/>
  <outline>
    <contour>
      <point x="175.5" y="699.5" type="line"/>
      <point x="186" y="699.5" type="line"/>
      <point x="103.5" y="220" type="line" smooth="yes"/>
      <point x="88.5" y="104"/>
      <point x="129" y="2"/>
      <point x="252" y="1.5" type="curve" smooth="yes"/>
      <point x="375" y="1"/>
      <point x="456" y="98"/>
      <point x="476" y="220" type="curve" smooth="yes"/>
      <point x="558.5" y="699.5" type="line"/>
      <point x="569.5" y="699.5" type="line"/>
      <point x="487.5" y="220" type="line" smooth="yes"/>
      <point x="466.5" y="92.5"/>
      <point x="386" y="-10"/>
      <point x="251.5" y="-9.5" type="curve" smooth="yes"/>
      <point x="117" y="-9"/>
      <point x="77" y="98.5"/>
      <point x="93" y="220" type="curve" smooth="yes"/>
    </contour>
    <contour>
      <point x="254" y="908" type="curve"/>
      <point x="264" y="908" type="line"/>
      <point x="258" y="840"/>
      <point x="299" y="779"/>
      <point x="384.5" y="778.5" type="curve" smooth="yes"/>
      <point x="472.5" y="778"/>
      <point x="532" y="840"/>
      <point x="551.5" y="907" type="curve"/>
      <point x="561.5" y="907" type="line"/>
      <point x="541.5" y="835"/>
      <point x="481.5" y="768"/>
      <point x="384" y="768.5" type="curve" smooth="yes"/>
      <point x="288.5" y="769"/>
      <point x="247" y="835"/>
    </contour>
  </outline>
</glyph>
<glyph name="Ydieresis" format="1">
  <advance width="492"/>
  <unicode hex="0178"/>
  <outline>
    <contour>
      <point x="253" y="779.5" type="curve" smooth="yes"/>
      <point x="253.5" y="785.5"/>
      <point x="261" y="790"/>
      <point x="266.5" y="790" type="curve" smooth="yes"/>
      <point x="272" y="790"/>
      <point x="276.5" y="785"/>
      <point x="276" y="779" type="curve" smooth="yes"/>
      <point x="275.5" y="773.5"/>
      <point x="269" y="768"/>
      <point x="263.5" y="768" type="curve" smooth="yes"/>
      <point x="258" y="768"/>
      <point x="252.5" y="773.5"/>
    </contour>
    <contour>
      <point x="428" y="779.5" type="curve" smooth="yes"/>
      <point x="428.5" y="785.5"/>
      <point x="436" y="790"/>
      <point x="441.5" y="790" type="curve" smooth="yes"/>
      <point x="447" y="790"/>
      <point x="451" y="785"/>
      <point x="450.5" y="779" type="curve" smooth="yes"/>
      <point x="450" y="773.5"/>
      <point x="443.5" y="768"/>
      <point x="438" y="768" type="curve" smooth="yes"/>
      <point x="432.5" y="768"/>
      <point x="427.5" y="773.5"/>
    </contour>
    <contour>
      <point x="557.5" y="699" type="line"/>
      <point x="570.5" y="699" type="line"/>
      <point x="265" y="266.5" type="line"/>
      <point x="219" y="0" type="line"/>
      <point x="208" y="0" type="line"/>
      <point x="254.5" y="266.5" type="line"/>
      <point x="107" y="700" type="line"/>
      <point x="119.5" y="700" type="line"/>
      <point x="261" y="281.5" type="line"/>
    </contour>
  </outline>
</glyph>
<glyph name="Zdotaccent" format="2">
  <advance width="519"/>
  <unicode hex="017B"/>
  <outline>
    <contour>
      <point x="129" y="689" type="line"/>
      <point x="131" y="700" type="line"/>
      <point x="597.5" y="699.5" type="line"/>
      <point x="16" y="11.5" type="line"/>
      <point x="470" y="11" type="line"/>
      <point x="468" y="0" type="line"/>
      <point x="-8.5" y="0" type="line"/>
      <point x="573.5" y="688.5" type="line"/>
    </contour>
    <contour>
      <point x="367" y="779" type="curve" smooth="yes"/>
      <point x="367.5" y="784.5"/>
      <point x="373.5" y="790"/>
      <point x="379" y="790" type="curve" smooth="yes"/>
      <point x="384.5" y="790"/>
      <point x="389" y="785"/>
      <point x="388.5" y="779" type="curve" smooth="yes"/>
      <point x="388" y="773.5"/>
      <point x="381.5" y="768"/>
      <point x="376" y="768" type="curve" smooth="yes"/>
      <point x="370.5" y="768"/>
      <point x="366.5" y="773"/>
    </contour>
  </outline>
</glyph>
<glyph name="uni021A" format="2">
  <advance width="418"/>
  <unicode hex="021A"/>
  <outline>
    <contour>
      <point x="110" y="689" type="line"/>
      <point x="111.5" y="700" type="line"/>
      <point x="491.5" y="700" type="line"/>
      <point x="489.5" y="689" type="line"/>
      <point x="305" y="689" type="line"/>
      <point x="187" y="0" type="line"/>
      <point x="176" y="0" type="line"/>
      <point x="294" y="689" type="line"/>
    </contour>
    <contour>
      <point x="217.026" y="-60" type="line"/>
      <point x="227.026" y="-65" type="line"/>
      <point x="76.0264" y="-313" type="line"/>
      <point x="70.0264" y="-311" type="line"/>
    </contour>
  </outline>
</glyph>
<glyph name="uni0237" format="2">
  <advance width="174"/>
  <unicode hex="0237"/>
  <outline>
    <contour>
      <point x="-149" y="-165" type="line"/>
      <point x="-134" y="-186"/>
      <point x="-114" y="-208.5"/>
      <point x="-81" y="-209.5" type="curve" smooth="yes"/>
      <point x="-6" y="-211.5"/>
      <point x="25.5" y="-138"/>
      <point x="36.5" y="-82" type="curve" smooth="yes"/>
      <point x="129.5" y="459.5" type="line"/>
      <point x="139.5" y="459.5" type="line"/>
      <point x="46.5" y="-82" type="line" smooth="yes"/>
      <point x="35" y="-147"/>
      <point x="-2" y="-222"/>
      <point x="-82" y="-219.5" type="curve" smooth="yes"/>
      <point x="-119.5" y="-218.5"/>
      <point x="-141.5" y="-194.5"/>
      <point x="-157" y="-172" type="curve"/>
    </contour>
  </outline>
</glyph>
<glyph name="caron" format="2">
  <advance width="465"/>
  <unicode hex="02C7"/>
  <outline>
    <contour>
      <point x="304.5" y="582.5" type="line"/>
      <point x="476" y="717" type="line"/>
      <point x="483" y="709" type="line"/>
      <point x="303.5" y="570.5" type="line"/>
      <point x="171" y="710" type="line"/>
      <point x="180" y="718" type="line"/>
    </contour>
  </outline>
</glyph>
<glyph name="uni0416" format="2">
  <advance width="621"/>
  <unicode hex="0416"/>
  <outline>
    <contour>
      <point x="126" y="700" type="line"/>
      <point x="349" y="369.5" type="line"/>
      <point x="-8" y="0" type="line"/>
      <point x="-24" y="0" type="line"/>
      <point x="337.5" y="370.5" type="line"/>
      <point x="112.5" y="700" type="line"/>
    </contour>
    <contour>
      <point x="403.5" y="699.5" type="line"/>
      <point x="413.5" y="699.5" type="line"/>
      <point x="292.5" y="0" type="line"/>
      <point x="282.5" y="0" type="line"/>
    </contour>
    <contour>
      <point x="679.5" y="699" type="line"/>
      <point x="695.5" y="699" type="line"/>
      <point x="365.5" y="369.5" type="line"/>
      <point x="588.5" y="0" type="line"/>
      <point x="575" y="0" type="line"/>
      <point x="354" y="370.5" type="line"/>
    </contour>
  </outline>
</glyph>
<glyph name="uni041B" format="2">
  <advance width="594"/>
  <unicode hex="041B"/>
  <outline>
    <contour>
      <point x="610" y="700" type="line"/>
      <point x="489.5" y="0" type="line"/>
      <point x="479.5" y="0" type="line"/>
      <point x="598.5" y="690" type="line"/>
      <point x="200.5" y="690" type="line"/>
      <point x="124" y="240" type="line" smooth="yes"/>
      <point x="107.5" y="128.5"/>
      <point x="66" y="15.5"/>
      <point x="-18" y="0.5" type="curve"/>
      <point x="-16" y="10.5" type="line"/>
      <point x="61.5" y="27.5"/>
      <point x="98" y="142.5"/>
      <point x="113.5" y="240" type="curve" smooth="yes"/>
      <point x="192.5" y="700" type="line"/>
    </contour>
  </outline>
</glyph>
<glyph name="uni0426" format="2">
  <advance width="664"/>
  <unicode hex="0426"/>
  <outline>
    <contour>
      <point x="61.5" y="10" type="line"/>
      <point x="508" y="10" type="line"/>
      <point x="626.5" y="699.5" type="line"/>
      <point x="636.5" y="699.5" type="line"/>
      <point x="518" y="10" type="line"/>
      <point x="601" y="10" type="line"/>
      <point x="579.5" y="-109.5" type="line"/>
      <point x="569.5" y="-109.5" type="line"/>
      <point x="589.5" y="0" type="line"/>
      <point x="50" y="0" type="line"/>
      <point x="170.5" y="699.5" type="line"/>
      <point x="180.5" y="699.5" type="line"/>
    </contour>
  </outline>
</glyph>
<glyph name="uni0429" format="2">
  <advance width="926"/>
  <unicode hex="0429"/>
  <outline>
    <contour>
      <point x="770" y="10" type="line"/>
      <point x="888.5" y="699.5" type="line"/>
      <point x="898.5" y="699.5" type="line"/>
      <point x="780" y="10" type="line"/>
      <point x="863" y="10" type="line"/>
      <point x="841.5" y="-109.5" type="line"/>
      <point x="831.5" y="-109.5" type="line"/>
      <point x="851.5" y="0" type="line"/>
      <point x="50" y="0" type="line"/>
      <point x="170.5" y="699.5" type="line"/>
      <point x="180.5" y="699.5" type="line"/>
      <point x="62" y="10" type="line"/>
      <point x="411" y="10" type="line"/>
      <point x="529.5" y="699.5" type="line"/>
      <point x="539.5" y="699.5" type="line"/>
      <point x="421" y="10" type="line"/>
    </contour>
  </outline>
</glyph>
<glyph name="uni0431" format="2">
  <advance width="529"/>
  <unicode hex="0431"/>
  <outline>
    <contour>
      <point x="318.5" y="459.5" type="curve"/>
      <point x="320" y="469.5" type="line"/>
      <point x="451.5" y="469.5"/>
      <point x="533.5" y="361.5"/>
      <point x="514.5" y="230" type="curve" smooth="yes"/>
      <point x="495.5" y="97.5"/>
      <point x="382.5" y="-9.5"/>
      <point x="247" y="-9.5" type="curve" smooth="yes"/>
      <point x="105.5" y="-9.5"/>
      <point x="53" y="107"/>
      <point x="53" y="235" type="curve"/>
      <point x="67.5" y="205" type="line"/>
      <point x="68" y="109.5"/>
      <point x="118" y="0.5"/>
      <point x="247.5" y="0.5" type="curve" smooth="yes"/>
      <point x="372" y="0.5"/>
      <point x="486" y="102.5"/>
      <point x="504.5" y="230" type="curve" smooth="yes"/>
      <point x="523.5" y="358.5"/>
      <point x="444" y="459.5"/>
    </contour>
    <contour>
      <point x="57" y="205" type="line"/>
      <point x="57.5" y="343"/>
      <point x="195" y="469.5"/>
      <point x="320" y="469.5" type="curve"/>
      <point x="318.5" y="459.5" type="line"/>
      <point x="201" y="459.5"/>
      <point x="67.5" y="338.5"/>
      <point x="67.5" y="205" type="curve"/>
    </contour>
    <contour>
      <point x="53" y="235" type="line"/>
      <point x="53.5" y="411.5"/>
      <point x="161.54" y="596.928"/>
      <point x="320" y="656" type="curve" smooth="yes"/>
      <point x="400.412" y="685.562"/>
      <point x="448.5" y="724.5"/>
      <point x="476" y="779.5" type="curve"/>
      <point x="486" y="779.5" type="line"/>
      <point x="458.5" y="719"/>
      <point x="406.987" y="677.803"/>
      <point x="322.5" y="646" type="curve" smooth="yes"/>
      <point x="164.523" y="585.793"/>
      <point x="63" y="402.788"/>
      <point x="63" y="240" type="curve" smooth="yes"/>
      <point x="63" y="205" type="line"/>
    </contour>
  </outline>
</glyph>
<glyph name="uni043B" format="2">
  <advance width="473"/>
  <unicode hex="043B"/>
  <outline>
    <contour>
      <point x="448" y="460" type="line"/>
      <point x="368.5" y="0" type="line"/>
      <point x="358.5" y="0" type="line"/>
      <point x="436" y="450" type="line"/>
      <point x="140.5" y="450" type="line"/>
      <point x="91" y="160" type="line" smooth="yes"/>
      <point x="78" y="70"/>
      <point x="41.5" y="12.5"/>
      <point x="-18" y="0.5" type="curve"/>
      <point x="-16" y="10.5" type="line"/>
      <point x="37.5" y="23"/>
      <point x="69" y="79.5"/>
      <point x="80.5" y="160" type="curve" smooth="yes"/>
      <point x="132" y="460" type="line"/>
    </contour>
  </outline>
</glyph>
<glyph name="uni044C" format="2">
  <advance width="400"/>
  <unicode hex="044C"/>
  <outline>
    <contour>
      <point x="124.5" y="459.5" type="line"/>
      <point x="134.5" y="459.5" type="line"/>
      <point x="55" y="0" type="line"/>
      <point x="45" y="0" type="line"/>
    </contour>
    <contour>
      <point x="94.5" y="276" type="line"/>
      <point x="96.5" y="286" type="line"/>
      <point x="210.5" y="286" type="line" smooth="yes"/>
      <point x="300" y="286"/>
      <point x="365" y="234.5"/>
      <point x="350.5" y="141.5" type="curve" smooth="yes"/>
      <point x="336" y="47.5"/>
      <point x="250" y="-4.89859e-15"/>
      <point x="162.5" y="0" type="curve" smooth="yes"/>
      <point x="47.5" y="0" type="line"/>
      <point x="49" y="10" type="line"/>
      <point x="163" y="10" type="line" smooth="yes"/>
      <point x="249.5" y="12"/>
      <point x="325.5" y="53"/>
      <point x="340" y="143" type="curve" smooth="yes"/>
      <point x="353.5" y="228.5"/>
      <point x="292" y="276"/>
      <point x="209.5" y="276" type="curve" smooth="yes"/>
    </contour>
  </outline>
</glyph>
<glyph name="uni1E9E" format="1">
  <advance width="646"/>
  <unicode hex="1E9E"/>
  <outline>
    <contour>
      <point x="348.5" y="-9.5" type="curve" smooth="yes"/>
      <point x="234" y="-9.5"/>
      <point x="173.5" y="82"/>
      <point x="184.5" y="185" type="curve"/>
      <point x="194" y="185" type="line"/>
      <point x="183.5" y="87"/>
      <point x="239.5" y="1"/>
      <point x="349" y="0.5" type="curve" smooth="yes"/>
      <point x="457" y="0"/>
      <point x="547" y="84.5"/>
      <point x="563.5" y="185" type="curve" smooth="yes"/>
      <point x="583" y="301"/>
      <point x="485" y="353.5"/>
      <point x="371.5" y="358" type="curve"/>
      <point x="373" y="365.5" type="line"/>
      <point x="493" y="361"/>
      <point x="593.5" y="305.5"/>
      <point x="573.5" y="185" type="curve" smooth="yes"/>
      <point x="556.5" y="79"/>
      <point x="461.5" y="-9.5"/>
    </contour>
    <contour>
      <point x="372" y="362.5" type="curve"/>
      <point x="373.5" y="370" type="line"/>
      <point x="490" y="374.5"/>
      <point x="585.5" y="429"/>
      <point x="603.5" y="534" type="curve" smooth="yes"/>
      <point x="619.5" y="635.5"/>
      <point x="534" y="698.5"/>
      <point x="434.5" y="699.5" type="curve" smooth="yes"/>
      <point x="267" y="701"/>
      <point x="158" y="574"/>
      <point x="131.5" y="416" type="curve" smooth="yes"/>
      <point x="59.5" y="0" type="line"/>
      <point x="50" y="0" type="line"/>
      <point x="121" y="416" type="line" smooth="yes"/>
      <point x="148.5" y="581"/>
      <point x="261" y="710.5"/>
      <point x="435" y="709.5" type="curve" smooth="yes"/>
      <point x="540" y="709"/>
      <point x="630.5" y="642"/>
      <point x="613.5" y="533.5" type="curve" smooth="yes"/>
      <point x="594.5" y="421"/>
      <point x="495.5" y="367"/>
    </contour>
  </outline>
</glyph>
<glyph name="quoteleft" format="2">
  <advance width="218"/>
  <unicode hex="2018"/>
  <outline>
    <contour>
      <point x="122.5" y="471" type="line"/>
      <point x="110" y="471" type="line"/>
      <point x="243.5" y="699" type="line"/>
      <point x="253.5" y="699" type="line"/>
    </contour>
  </outline>
</glyph>
<glyph name="quotedblleft" format="1">
  <advance width="373"/>
  <unicode hex="201C"/>
  <outline>
    <contour>
      <point x="141.5" y="471" type="line"/>
      <point x="129.5" y="471" type="line"/>
      <point x="263" y="699" type="line"/>
      <point x="273" y="699" type="line"/>
    </contour>
    <contour>
      <point x="277.5" y="471" type="line"/>
      <point x="265.5" y="471" type="line"/>
      <point x="398.5" y="699" type="line"/>
      <point x="409" y="699" type="line"/>
    </contour>
  </outline>
</glyph>
<glyph name="dagger" format="2">
  <advance width="485"/>
  <unicode hex="2020"/>
  <outline>
    <contour>
      <point x="153" y="540" type="line"/>
      <point x="464" y="540" type="line"/>
      <point x="462.5" y="530" type="line"/>
      <point x="151.5" y="530" type="line"/>
    </contour>
    <contour>
      <point x="329" y="700" type="line"/>
      <point x="338.5" y="700" type="line"/>
      <point x="207" y="-150" type="line"/>
      <point x="197" y="-150" type="line"/>
    </contour>
  </outline>
</glyph>
<glyph name="ellipsis" format="1">
  <advance width="788"/>
  <unicode hex="2026"/>
  <outline>
    <contour>
      <point x="89.5" y="1" type="curve" smooth="yes"/>
      <point x="90" y="6.5"/>
      <point x="96.5" y="12"/>
      <point x="102" y="12" type="curve" smooth="yes"/>
      <point x="107.5" y="12"/>
      <point x="111.5" y="7"/>
      <point x="111" y="1" type="curve" smooth="yes"/>
      <point x="110.5" y="-4.5"/>
      <point x="104" y="-10"/>
      <point x="98.5" y="-10" type="curve" smooth="yes"/>
      <point x="93" y="-10"/>
      <point x="89" y="-5"/>
    </contour>
    <contour>
      <point x="356.5" y="1" type="curve" smooth="yes"/>
      <point x="357" y="6.5"/>
      <point x="363" y="12"/>
      <point x="368.5" y="12" type="curve" smooth="yes"/>
      <point x="374" y="12"/>
      <point x="378.5" y="7"/>
      <point x="378" y="1" type="curve" smooth="yes"/>
      <point x="377.5" y="-4.5"/>
      <point x="371" y="-10"/>
      <point x="365.5" y="-10" type="curve" smooth="yes"/>
      <point x="360" y="-10"/>
      <point x="356" y="-5"/>
    </contour>
    <contour>
      <point x="623" y="1" type="curve" smooth="yes"/>
      <point x="623.5" y="6.5"/>
      <point x="630" y="12"/>
      <point x="635.5" y="12" type="curve" smooth="yes"/>
      <point x="641" y="12"/>
      <point x="645" y="7"/>
      <point x="644.5" y="1" type="curve" smooth="yes"/>
      <point x="644" y="-4.5"/>
      <point x="638" y="-10"/>
      <point x="632.5" y="-10" type="curve" smooth="yes"/>
      <point x="627" y="-10"/>
      <point x="622.5" y="-5"/>
    </contour>
  </outline>
</glyph>
<glyph name="uni2031" format="2">
  <advance width="1398"/>
  <unicode hex="2031"/>
  <outline>
    <contour>
      <point x="1073.5" y="140.5" type="curve" smooth="yes"/>
      <point x="1086.5" y="221"/>
      <point x="1155.5" y="290"/>
      <point x="1243" y="289.5" type="curve" smooth="yes"/>
      <point x="1330" y="289"/>
      <point x="1373.5" y="217.5"/>
      <point x="1361.5" y="139.5" type="curve" smooth="yes"/>
      <point x="1348.5" y="59"/>
      <point x="1280" y="-10"/>
      <point x="1192.5" y="-9.5" type="curve" smooth="yes"/>
      <point x="1105.5" y="-9"/>
      <point x="1061.5" y="62.5"/>
    </contour>
    <contour>
      <point x="1083.5" y="140" type="curve" smooth="yes"/>
      <point x="1072" y="69.5"/>
      <point x="1111.5" y="0"/>
      <point x="1193" y="-0.5" type="curve" smooth="yes"/>
      <point x="1275" y="-1"/>
      <point x="1339.5" y="66"/>
      <point x="1352" y="140" type="curve" smooth="yes"/>
      <point x="1363.5" y="211"/>
      <point x="1323" y="279"/>
      <point x="1242" y="279.5" type="curve" smooth="yes"/>
      <point x="1160" y="280"/>
      <point x="1096" y="214"/>
    </contour>
    <contour>
      <point x="714.5" y="140.5" type="curve" smooth="yes"/>
      <point x="727.5" y="221"/>
      <point x="796" y="290"/>
      <point x="883.5" y="289.5" type="curve" smooth="yes"/>
      <point x="970.5" y="289"/>
      <point x="1014.5" y="217.5"/>
      <point x="1002.5" y="139.5" type="curve" smooth="yes"/>
      <point x="989.5" y="59"/>
      <point x="921" y="-10"/>
      <point x="833.5" y="-9.5" type="curve" smooth="yes"/>
      <point x="746.5" y="-9"/>
      <point x="702.5" y="62.5"/>
    </contour>
    <contour>
      <point x="724.5" y="140" type="curve" smooth="yes"/>
      <point x="713" y="69.5"/>
      <point x="752.5" y="0"/>
      <point x="834" y="-0.5" type="curve" smooth="yes"/>
      <point x="916" y="-1"/>
      <point x="980" y="66"/>
      <point x="992.5" y="140" type="curve" smooth="yes"/>
      <point x="1004" y="211"/>
      <point x="964" y="279"/>
      <point x="883" y="279.5" type="curve" smooth="yes"/>
      <point x="801" y="280"/>
      <point x="737" y="214"/>
    </contour>
    <contour>
      <point x="102" y="560.5" type="curve" smooth="yes"/>
      <point x="115" y="641"/>
      <point x="183.5" y="710"/>
      <point x="271" y="709.5" type="curve" smooth="yes"/>
      <point x="358" y="709"/>
      <point x="402" y="637.5"/>
      <point x="390" y="559.5" type="curve" smooth="yes"/>
      <point x="377" y="479"/>
      <point x="308.5" y="410"/>
      <point x="221" y="410.5" type="curve" smooth="yes"/>
      <point x="134" y="411"/>
      <point x="90" y="482.5"/>
    </contour>
    <contour>
      <point x="112" y="560" type="curve" smooth="yes"/>
      <point x="100.5" y="489.5"/>
      <point x="140" y="420"/>
      <point x="221.5" y="419.5" type="curve" smooth="yes"/>
      <point x="303.5" y="419"/>
      <point x="367.5" y="486"/>
      <point x="380" y="560" type="curve" smooth="yes"/>
      <point x="391.5" y="631"/>
      <point x="351.5" y="699"/>
      <point x="270.5" y="699.5" type="curve" smooth="yes"/>
      <point x="188.5" y="700"/>
      <point x="124.5" y="634"/>
    </contour>
    <contour>
      <point x="355.5" y="140.5" type="curve" smooth="yes"/>
      <point x="368.5" y="221"/>
      <point x="437" y="290"/>
      <point x="524.5" y="289.5" type="curve" smooth="yes"/>
      <point x="611.5" y="289"/>
      <point x="655.5" y="217.5"/>
      <point x="643.5" y="139.5" type="curve" smooth="yes"/>
      <point x="630.5" y="59"/>
      <point x="562" y="-10"/>
      <point x="474.5" y="-9.5" type="curve" smooth="yes"/>
      <point x="387.5" y="-9"/>
      <point x="343.5" y="62.5"/>
    </contour>
    <contour>
      <point x="365.5" y="140" type="curve" smooth="yes"/>
      <point x="354" y="69.5"/>
      <point x="393" y="0"/>
      <point x="474.5" y="-0.5" type="curve" smooth="yes"/>
      <point x="556.5" y="-1"/>
      <point x="621" y="66"/>
      <point x="633.5" y="140" type="curve" smooth="yes"/>
      <point x="645" y="211"/>
      <point x="605" y="279"/>
      <point x="524" y="279.5" type="curve" smooth="yes"/>
      <point x="442" y="280"/>
      <point x="378" y="214"/>
    </contour>
    <contour>
      <point x="648.5" y="699" type="line"/>
      <point x="660.5" y="699" type="line"/>
      <point x="97" y="0" type="line"/>
      <point x="84.5" y="0" type="line"/>
    </contour>
  </outline>
</glyph>
<glyph name="fraction" format="2">
  <advance width="684"/>
  <unicode hex="2044"/>
  <outline>
    <contour>
      <point x="706.5" y="699" type="line"/>
      <point x="719" y="699" type="line"/>
      <point x="42.5" y="0" type="line"/>
      <point x="30.5" y="0" type="line"/>
    </contour>
  </outline>
</glyph>
<glyph name="uni2070" format="2">
  <advance width="314"/>
  <unicode hex="2070"/>
  <outline>
    <contour>
      <point x="97" y="490" type="curve" smooth="yes"/>
      <point x="87" y="405"/>
      <point x="92.5" y="281.5"/>
      <point x="182" y="280.5" type="curve" smooth="yes"/>
      <point x="271" y="279.5"/>
      <point x="326.5" y="395"/>
      <point x="340" y="490" type="curve" smooth="yes"/>
      <point x="350" y="575"/>
      <point x="344.5" y="698.5"/>
      <point x="255" y="699.5" type="curve" smooth="yes"/>
      <point x="166" y="700.5"/>
      <point x="110.5" y="585"/>
    </contour>
    <contour>
      <point x="90" y="490" type="curve" smooth="yes"/>
      <point x="104" y="590.5"/>
      <point x="161.5" y="706"/>
      <point x="255" y="705.5" type="curve" smooth="yes"/>
      <point x="349.5" y="704.5"/>
      <point x="357.5" y="580.5"/>
      <point x="347" y="490" type="curve" smooth="yes"/>
      <point x="333" y="389.5"/>
      <point x="275.5" y="274"/>
      <point x="182" y="274.5" type="curve" smooth="yes"/>
      <point x="87.5" y="275.5"/>
      <point x="79.5" y="399.5"/>
    </contour>
  </outline>
</glyph>
<glyph name="uni2078" format="2">
  <advance width="293"/>
  <unicode hex="2078"/>
  <outline>
    <contour>
      <point x="121.5" y="605.5" type="curve" smooth="yes"/>
      <point x="130" y="657.5"/>
      <point x="182.5" y="706"/>
      <point x="240" y="705.5" type="curve" smooth="yes"/>
      <point x="297" y="705"/>
      <point x="332" y="655"/>
      <point x="324" y="604.5" type="curve" smooth="yes"/>
      <point x="315.5" y="549.5"/>
      <point x="258" y="500.5"/>
      <point x="205" y="501.5" type="curve" smooth="yes"/>
      <point x="152.5" y="502"/>
      <point x="114" y="552.5"/>
    </contour>
    <contour>
      <point x="127" y="605.5" type="curve" smooth="yes"/>
      <point x="119.5" y="555"/>
      <point x="159" y="506.5"/>
      <point x="205" y="505.5" type="curve" smooth="yes"/>
      <point x="251.5" y="504.5"/>
      <point x="310" y="552"/>
      <point x="318" y="604.5" type="curve" smooth="yes"/>
      <point x="325.5" y="653.5"/>
      <point x="293.5" y="698.5"/>
      <point x="239.5" y="699.5" type="curve" smooth="yes"/>
      <point x="185" y="700.5"/>
      <point x="135" y="655.5"/>
    </contour>
    <contour>
      <point x="73" y="391.5" type="curve" smooth="yes"/>
      <point x="83" y="452.5"/>
      <point x="144" y="503"/>
      <point x="205" y="502.5" type="curve" smooth="yes"/>
      <point x="265.5" y="502"/>
      <point x="307" y="450"/>
      <point x="299" y="390.5" type="curve" smooth="yes"/>
      <point x="290" y="327.5"/>
      <point x="236.5" y="273.5"/>
      <point x="166.5" y="274.5" type="curve" smooth="yes"/>
      <point x="96.5" y="275.5"/>
      <point x="63" y="330.5"/>
    </contour>
    <contour>
      <point x="79" y="391" type="curve" smooth="yes"/>
      <point x="69.5" y="332.5"/>
      <point x="101" y="281"/>
      <point x="166.5" y="280.5" type="curve" smooth="yes"/>
      <point x="232" y="279.5"/>
      <point x="284" y="330"/>
      <point x="293" y="391" type="curve" smooth="yes"/>
      <point x="301" y="448"/>
      <point x="261.5" y="497.5"/>
      <point x="205.5" y="498.5" type="curve" smooth="yes"/>
      <point x="148.5" y="499.5"/>
      <point x="89" y="450"/>
    </contour>
  </outline>
</glyph>
<glyph name="uni2081" format="1">
  <advance width="279"/>
  <unicode hex="2081"/>
  <outline>
    <contour>
      <point x="132.5" y="393.5" type="line"/>
      <point x="133.5" y="400.5" type="line"/>
      <point x="243" y="424" type="line"/>
      <point x="169.5" y="1.5" type="line"/>
      <point x="163.5" y="1.5" type="line"/>
      <point x="235" y="415.5" type="line"/>
    </contour>
  </outline>
</glyph>
<glyph name="uni2085" format="1">
  <advance width="330"/>
  <unicode hex="2085"/>
  <outline>
    <contour>
      <point x="283" y="135.5" type="curve" smooth="yes"/>
      <point x="271" y="51.5"/>
      <point x="205" y="-8"/>
      <point x="127" y="-7.5" type="curve" smooth="yes"/>
      <point x="66" y="-7.5"/>
      <point x="36.5" y="28"/>
      <point x="20.5" y="80" type="curve"/>
      <point x="25.5" y="83" type="line"/>
      <point x="41.5" y="32.5"/>
      <point x="68.5" y="-1"/>
      <point x="127" y="-1.5" type="curve" smooth="yes"/>
      <point x="202" y="-2"/>
      <point x="265.5" y="55.5"/>
      <point x="277" y="136" type="curve" smooth="yes"/>
      <point x="286" y="199.5"/>
      <point x="253.5" y="258"/>
      <point x="188.5" y="259.5" type="curve" smooth="yes"/>
      <point x="136" y="261"/>
      <point x="92.5" y="231"/>
      <point x="57" y="195" type="curve"/>
      <point x="70" y="213.5" type="line"/>
      <point x="94.5" y="242"/>
      <point x="140" y="266.5"/>
      <point x="188.5" y="265.5" type="curve" smooth="yes"/>
      <point x="257" y="264"/>
      <point x="292.5" y="203"/>
    </contour>
    <contour>
      <point x="152.5" y="411.5" type="line"/>
      <point x="69.5" y="213.5" type="line"/>
      <point x="56.5" y="195" type="line"/>
      <point x="149.5" y="417.5" type="line"/>
      <point x="341.5" y="418" type="line"/>
      <point x="340.5" y="412" type="line"/>
    </contour>
  </outline>
</glyph>
<glyph name="uni2086" format="2">
  <advance width="322"/>
  <unicode hex="2086"/>
  <outline>
    <contour>
      <point x="39.5" y="130" type="curve" smooth="yes"/>
      <point x="29" y="62"/>
      <point x="63.5" y="-1"/>
      <point x="137.5" y="-1.5" type="curve" smooth="yes"/>
      <point x="211.5" y="-2"/>
      <point x="271.5" y="59"/>
      <point x="282.5" y="130" type="curve" smooth="yes"/>
      <point x="291.5" y="192.5"/>
      <point x="254" y="252"/>
      <point x="189.5" y="253.5" type="curve" smooth="yes"/>
      <point x="111.5" y="255"/>
      <point x="51" y="194.5"/>
    </contour>
    <contour>
      <point x="246.5" y="417" type="line"/>
      <point x="255" y="416.5" type="line"/>
      <point x="76" y="212" type="line"/>
      <point x="75.5" y="211.5" type="line"/>
      <point x="105.5" y="239"/>
      <point x="144.5" y="261"/>
      <point x="189.5" y="260" type="curve" smooth="yes"/>
      <point x="258.5" y="259"/>
      <point x="298" y="194.5"/>
      <point x="288.5" y="129.5" type="curve" smooth="yes"/>
      <point x="277.5" y="54.5"/>
      <point x="216.5" y="-8.5"/>
      <point x="137.5" y="-7.5" type="curve" smooth="yes"/>
      <point x="58.5" y="-6.5"/>
      <point x="22.5" y="57.5"/>
      <point x="33.5" y="130" type="curve" smooth="yes"/>
      <point x="39.5" y="165"/>
      <point x="62" y="200.5"/>
      <point x="83" y="225" type="curve" smooth="yes"/>
    </contour>
  </outline>
</glyph>
<glyph name="uni2151" format="1">
  <advance width="760"/>
  <unicode hex="2151"/>
  <outline>
    <contour>
      <point x="695" y="699" type="line"/>
      <point x="707" y="699" type="line"/>
      <point x="31" y="0" type="line"/>
      <point x="19" y="0" type="line"/>
    </contour>
    <contour>
      <point x="107" y="666.5" type="line"/>
      <point x="108" y="673.5" type="line"/>
      <point x="218" y="697" type="line"/>
      <point x="144" y="274.5" type="line"/>
      <point x="138" y="274.5" type="line"/>
      <point x="209.5" y="688.5" type="line"/>
    </contour>
    <contour>
      <point x="725" y="290" type="curve" smooth="yes"/>
      <point x="735.5" y="358"/>
      <point x="701" y="421"/>
      <point x="627" y="421.5" type="curve" smooth="yes"/>
      <point x="553" y="422"/>
      <point x="493" y="361"/>
      <point x="482" y="290" type="curve" smooth="yes"/>
      <point x="473" y="227.5"/>
      <point x="511.5" y="168"/>
      <point x="576" y="166.5" type="curve" smooth="yes"/>
      <point x="654" y="165"/>
      <point x="713.5" y="225.5"/>
    </contour>
    <contour>
      <point x="518" y="3" type="line"/>
      <point x="510.5" y="3.5" type="line"/>
      <point x="688.5" y="208" type="line"/>
      <point x="689" y="208.5" type="line"/>
      <point x="659" y="181"/>
      <point x="620.5" y="159"/>
      <point x="576" y="160" type="curve" smooth="yes"/>
      <point x="507" y="161"/>
      <point x="467" y="225.5"/>
      <point x="476.5" y="290.5" type="curve" smooth="yes"/>
      <point x="487.5" y="365.5"/>
      <point x="548.5" y="428.5"/>
      <point x="627" y="427.5" type="curve" smooth="yes"/>
      <point x="706" y="426.5"/>
      <point x="742" y="362.5"/>
      <point x="731" y="290" type="curve" smooth="yes"/>
      <point x="725" y="255"/>
      <point x="703" y="219.5"/>
      <point x="682" y="195" type="curve" smooth="yes"/>
    </contour>
  </outline>
</glyph>
<glyph name="twothirds" format="2">
  <advance width="855"/>
  <unicode hex="2154"/>
  <outline>
    <contour>
      <point x="818.5" y="699" type="line"/>
      <point x="830.5" y="699" type="line"/>
      <point x="154" y="0" type="line"/>
      <point x="142" y="0" type="line"/>
    </contour>
    <contour>
      <point x="53" y="282.5" type="line"/>
      <point x="273" y="483" type="line" smooth="yes"/>
      <point x="305.5" y="513.5"/>
      <point x="340" y="546"/>
      <point x="348" y="594" type="curve" smooth="yes"/>
      <point x="357" y="643"/>
      <point x="332.5" y="701.5"/>
      <point x="263.5" y="702.5" type="curve" smooth="yes"/>
      <point x="187" y="704"/>
      <point x="138" y="633"/>
      <point x="122.5" y="559" type="curve"/>
      <point x="116.5" y="559" type="line"/>
      <point x="132.5" y="636.5"/>
      <point x="183.5" y="710"/>
      <point x="263.5" y="708.5" type="curve" smooth="yes"/>
      <point x="335" y="707.5"/>
      <point x="363" y="646.5"/>
      <point x="354" y="594" type="curve" smooth="yes"/>
      <point x="346.5" y="546"/>
      <point x="311.5" y="510"/>
      <point x="278" y="479" type="curve" smooth="yes"/>
      <point x="69" y="288.5" type="line"/>
      <point x="318" y="288" type="line"/>
      <point x="317" y="282" type="line"/>
    </contour>
    <contour>
      <point x="693.5" y="217.5" type="curve"/>
      <point x="694.5" y="222.5" type="line"/>
      <point x="751.5" y="227.5"/>
      <point x="821.5" y="257.5"/>
      <point x="833" y="320" type="curve" smooth="yes"/>
      <point x="842" y="369.5"/>
      <point x="810" y="418.5"/>
      <point x="750" y="419.5" type="curve" smooth="yes"/>
      <point x="685" y="420.5"/>
      <point x="642" y="373"/>
      <point x="627" y="317" type="curve"/>
      <point x="621" y="317" type="line"/>
      <point x="636.5" y="377"/>
      <point x="681" y="426.5"/>
      <point x="750" y="425.5" type="curve" smooth="yes"/>
      <point x="815" y="424.5"/>
      <point x="848.5" y="372.5"/>
      <point x="839" y="319.5" type="curve" smooth="yes"/>
      <point x="827" y="253.5"/>
      <point x="757" y="222"/>
    </contour>
    <contour>
      <point x="674" y="-5.5" type="curve" smooth="yes"/>
      <point x="597" y="-5"/>
      <point x="564.5" y="47"/>
      <point x="569.5" y="111" type="curve"/>
      <point x="575.5" y="111" type="line"/>
      <point x="571" y="49"/>
      <point x="599.5" y="1"/>
      <point x="674" y="0.5" type="curve" smooth="yes"/>
      <point x="741" y="0"/>
      <point x="798.5" y="44.5"/>
      <point x="808" y="105" type="curve" smooth="yes"/>
      <point x="819" y="177"/>
      <point x="750" y="210"/>
      <point x="694" y="215.5" type="curve"/>
      <point x="694.5" y="220.5" type="line"/>
      <point x="757" y="215"/>
      <point x="825.5" y="179.5"/>
      <point x="814" y="104.5" type="curve" smooth="yes"/>
      <point x="804" y="40.5"/>
      <point x="744" y="-6"/>
    </contour>
  </outline>
</glyph>
<glyph name="uni2159" format="2">
  <advance width="712"/>
  <unicode hex="2159"/>
  <outline>
    <contour>
      <point x="695" y="699" type="line"/>
      <point x="707" y="699" type="line"/>
      <point x="31" y="0" type="line"/>
      <point x="19" y="0" type="line"/>
    </contour>
    <contour>
      <point x="107" y="666.5" type="line"/>
      <point x="108" y="673.5" type="line"/>
      <point x="218" y="697" type="line"/>
      <point x="144" y="274.5" type="line"/>
      <point x="138" y="274.5" type="line"/>
      <point x="209.5" y="688.5" type="line"/>
    </contour>
    <contour>
      <point x="416" y="130" type="curve" smooth="yes"/>
      <point x="405.5" y="62"/>
      <point x="440.5" y="-1"/>
      <point x="514.5" y="-1.5" type="curve" smooth="yes"/>
      <point x="588.5" y="-2"/>
      <point x="648" y="59"/>
      <point x="659" y="130" type="curve" smooth="yes"/>
      <point x="668" y="192.5"/>
      <point x="630.5" y="252"/>
      <point x="566" y="253.5" type="curve" smooth="yes"/>
      <point x="488" y="255"/>
      <point x="427.5" y="194.5"/>
    </contour>
    <contour>
      <point x="623" y="417" type="line"/>
      <point x="631.5" y="416.5" type="line"/>
      <point x="453" y="212" type="line"/>
      <point x="452.5" y="211.5" type="line"/>
      <point x="482.5" y="239"/>
      <point x="521" y="261"/>
      <point x="566" y="260" type="curve" smooth="yes"/>
      <point x="635" y="259"/>
      <point x="674.5" y="194.5"/>
      <point x="665" y="129.5" type="curve" smooth="yes"/>
      <point x="654" y="54.5"/>
      <point x="593.5" y="-8.5"/>
      <point x="514.5" y="-7.5" type="curve" smooth="yes"/>
      <point x="435.5" y="-6.5"/>
      <point x="399" y="57.5"/>
      <point x="410" y="130" type="curve" smooth="yes"/>
      <point x="416" y="165"/>
      <point x="438.5" y="200.5"/>
      <point x="459.5" y="225" type="curve" smooth="yes"/>
    </contour>
  </outline>
</glyph>
<glyph name="uni215A" format="2">
  <advance width="830"/>
  <unicode hex="215A"/>
  <outline>
    <contour>
      <point x="813.5" y="699" type="line"/>
      <point x="825.5" y="699" type="line"/>
      <point x="149.5" y="0" type="line"/>
      <point x="137" y="0" type="line"/>
    </contour>
    <contour>
      <point x="330.5" y="415.5" type="curve" smooth="yes"/>
      <point x="318.5" y="331.5"/>
      <point x="253" y="272"/>
      <point x="175" y="272.5" type="curve" smooth="yes"/>
      <point x="114" y="272.5"/>
      <point x="84" y="308"/>
      <point x="68" y="360" type="curve"/>
      <point x="73.5" y="363" type="line"/>
      <point x="89.5" y="312.5"/>
      <point x="116.5" y="279"/>
      <point x="175" y="278.5" type="curve" smooth="yes"/>
      <point x="250" y="278"/>
      <point x="313" y="335.5"/>
      <point x="324.5" y="416" type="curve" smooth="yes"/>
      <point x="333.5" y="479.5"/>
      <point x="301.5" y="538"/>
      <point x="236.5" y="539.5" type="curve" smooth="yes"/>
      <point x="184" y="541"/>
      <point x="140.5" y="511"/>
      <point x="105" y="475" type="curve"/>
      <point x="117.5" y="493.5" type="line"/>
      <point x="142" y="522"/>
      <point x="188" y="546.5"/>
      <point x="236.5" y="545.5" type="curve" smooth="yes"/>
      <point x="305" y="544"/>
      <point x="340" y="483"/>
    </contour>
    <contour>
      <point x="200.5" y="691.5" type="line"/>
      <point x="117.5" y="493.5" type="line"/>
      <point x="104" y="475" type="line"/>
      <point x="197" y="697.5" type="line"/>
      <point x="389" y="698" type="line"/>
      <point x="388" y="692" type="line"/>
    </contour>
    <contour>
      <point x="534.5" y="130" type="curve" smooth="yes"/>
      <point x="524" y="62"/>
      <point x="558.5" y="-1"/>
      <point x="632.5" y="-1.5" type="curve" smooth="yes"/>
      <point x="706.5" y="-2"/>
      <point x="766.5" y="59"/>
      <point x="777.5" y="130" type="curve" smooth="yes"/>
      <point x="786.5" y="192.5"/>
      <point x="749" y="252"/>
      <point x="684.5" y="253.5" type="curve" smooth="yes"/>
      <point x="606.5" y="255"/>
      <point x="546" y="194.5"/>
    </contour>
    <contour>
      <point x="741.5" y="417" type="line"/>
      <point x="750" y="416.5" type="line"/>
      <point x="571" y="212" type="line"/>
      <point x="570.5" y="211.5" type="line"/>
      <point x="600.5" y="239"/>
      <point x="639.5" y="261"/>
      <point x="684.5" y="260" type="curve" smooth="yes"/>
      <point x="753.5" y="259"/>
      <point x="793" y="194.5"/>
      <point x="783.5" y="129.5" type="curve" smooth="yes"/>
      <point x="772.5" y="54.5"/>
      <point x="711.5" y="-8.5"/>
      <point x="632.5" y="-7.5" type="curve" smooth="yes"/>
      <point x="553.5" y="-6.5"/>
      <point x="517.5" y="57.5"/>
      <point x="528.5" y="130" type="curve" smooth="yes"/>
      <point x="534.5" y="165"/>
      <point x="556.5" y="200.5"/>
      <point x="577.5" y="225" type="curve" smooth="yes"/>
    </contour>
  </outline>
</glyph>
<glyph name="fiveeighths" format="2">
  <advance width="855"/>
  <unicode hex="215D"/>
  <outline>
    <contour>
      <point x="813.5" y="699" type="line"/>
      <point x="825.5" y="699" type="line"/>
      <point x="149.5" y="0" type="line"/>
      <point x="137" y="0" type="line"/>
    </contour>
    <contour>
      <point x="330.5" y="415.5" type="curve" smooth="yes"/>
      <point x="318.5" y="331.5"/>
      <point x="253" y="272"/>
      <point x="175" y="272.5" type="curve" smooth="yes"/>
      <point x="114" y="272.5"/>
      <point x="84" y="308"/>
      <point x="68" y="360" type="curve"/>
      <point x="73.5" y="363" type="line"/>
      <point x="89.5" y="312.5"/>
      <point x="116.5" y="279"/>
      <point x="175" y="278.5" type="curve" smooth="yes"/>
      <point x="250" y="278"/>
      <point x="313" y="335.5"/>
      <point x="324.5" y="416" type="curve" smooth="yes"/>
      <point x="333.5" y="479.5"/>
      <point x="301.5" y="538"/>
      <point x="236.5" y="539.5" type="curve" smooth="yes"/>
      <point x="184" y="541"/>
      <point x="140.5" y="511"/>
      <point x="105" y="475" type="curve"/>
      <point x="117.5" y="493.5" type="line"/>
      <point x="142" y="522"/>
      <point x="188" y="546.5"/>
      <point x="236.5" y="545.5" type="curve" smooth="yes"/>
      <point x="305" y="544"/>
      <point x="340" y="483"/>
    </contour>
    <contour>
      <point x="200.5" y="691.5" type="line"/>
      <point x="117.5" y="493.5" type="line"/>
      <point x="104" y="475" type="line"/>
      <point x="197" y="697.5" type="line"/>
      <point x="389" y="698" type="line"/>
      <point x="388" y="692" type="line"/>
    </contour>
    <contour>
      <point x="617" y="325.5" type="curve" smooth="yes"/>
      <point x="625.5" y="377.5"/>
      <point x="678" y="426"/>
      <point x="735.5" y="425.5" type="curve" smooth="yes"/>
      <point x="792.5" y="425"/>
      <point x="828" y="375"/>
      <point x="820" y="324.5" type="curve" smooth="yes"/>
      <point x="811.5" y="269.5"/>
      <point x="753.5" y="220.5"/>
      <point x="700.5" y="221.5" type="curve" smooth="yes"/>
      <point x="648" y="222"/>
      <point x="609.5" y="272.5"/>
    </contour>
    <contour>
      <point x="623" y="325.5" type="curve" smooth="yes"/>
      <point x="615.5" y="275"/>
      <point x="654.5" y="226.5"/>
      <point x="700.5" y="225.5" type="curve" smooth="yes"/>
      <point x="747" y="224.5"/>
      <point x="806" y="272"/>
      <point x="814" y="324.5" type="curve" smooth="yes"/>
      <point x="821.5" y="373.5"/>
      <point x="789.5" y="418.5"/>
      <point x="735.5" y="419.5" type="curve" smooth="yes"/>
      <point x="681" y="420.5"/>
      <point x="631" y="375.5"/>
    </contour>
    <contour>
      <point x="569" y="111.5" type="curve" smooth="yes"/>
      <point x="579" y="172.5"/>
      <point x="639.5" y="223"/>
      <point x="700.5" y="222.5" type="curve" smooth="yes"/>
      <point x="761" y="222"/>
      <point x="803" y="170"/>
      <point x="795" y="110.5" type="curve" smooth="yes"/>
      <point x="786" y="47.5"/>
      <point x="732" y="-6.5"/>
      <point x="662" y="-5.5" type="curve" smooth="yes"/>
      <point x="592" y="-4.5"/>
      <point x="559" y="50.5"/>
    </contour>
    <contour>
      <point x="575" y="111" type="curve" smooth="yes"/>
      <point x="565.5" y="52.5"/>
      <point x="596.5" y="1"/>
      <point x="662" y="0.5" type="curve" smooth="yes"/>
      <point x="727.5" y="-0.5"/>
      <point x="780" y="50"/>
      <point x="789" y="111" type="curve" smooth="yes"/>
      <point x="797" y="168"/>
      <point x="757" y="217.5"/>
      <point x="701" y="218.5" type="curve" smooth="yes"/>
      <point x="644" y="219.5"/>
      <point x="585" y="170"/>
    </contour>
  </outline>
</glyph>
<glyph name="seveneighths" format="1">
  <advance width="749"/>
  <unicode hex="215E"/>
  <outline>
    <contour>
      <point x="706.5" y="699" type="line"/>
      <point x="719" y="699" type="line"/>
      <point x="42.5" y="0" type="line"/>
      <point x="30.5" y="0" type="line"/>
    </contour>
    <contour>
      <point x="125.5" y="694" type="line"/>
      <point x="126" y="700" type="line"/>
      <point x="400.5" y="699.5" type="line"/>
      <point x="112.5" y="281" type="line"/>
      <point x="105.5" y="281" type="line"/>
      <point x="389" y="693.5" type="line"/>
    </contour>
    <contour>
      <point x="510" y="325.5" type="curve" smooth="yes"/>
      <point x="518.5" y="377.5"/>
      <point x="571" y="426"/>
      <point x="628.5" y="425.5" type="curve" smooth="yes"/>
      <point x="685.5" y="425"/>
      <point x="721" y="375"/>
      <point x="713" y="324.5" type="curve" smooth="yes"/>
      <point x="704.5" y="269.5"/>
      <point x="647" y="220.5"/>
      <point x="594" y="221.5" type="curve" smooth="yes"/>
      <point x="541.5" y="222"/>
      <point x="502.5" y="272.5"/>
    </contour>
    <contour>
      <point x="516" y="325.5" type="curve" smooth="yes"/>
      <point x="508.5" y="275"/>
      <point x="548" y="226.5"/>
      <point x="594" y="225.5" type="curve" smooth="yes"/>
      <point x="640.5" y="224.5"/>
      <point x="699" y="272"/>
      <point x="707" y="324.5" type="curve" smooth="yes"/>
      <point x="714.5" y="373.5"/>
      <point x="682.5" y="418.5"/>
      <point x="628.5" y="419.5" type="curve" smooth="yes"/>
      <point x="574" y="420.5"/>
      <point x="524" y="375.5"/>
    </contour>
    <contour>
      <point x="462" y="111.5" type="curve" smooth="yes"/>
      <point x="472" y="172.5"/>
      <point x="533" y="223"/>
      <point x="594" y="222.5" type="curve" smooth="yes"/>
      <point x="654.5" y="222"/>
      <point x="696" y="170"/>
      <point x="688" y="110.5" type="curve" smooth="yes"/>
      <point x="679" y="47.5"/>
      <point x="625.5" y="-6.5"/>
      <point x="555.5" y="-5.5" type="curve" smooth="yes"/>
      <point x="485.5" y="-4.5"/>
      <point x="452" y="50.5"/>
    </contour>
    <contour>
      <point x="468" y="111" type="curve" smooth="yes"/>
      <point x="458.5" y="52.5"/>
      <point x="490" y="1.5"/>
      <point x="555.5" y="0.5" type="curve" smooth="yes"/>
      <point x="621" y="-0.5"/>
      <point x="673" y="50"/>
      <point x="682" y="111" type="curve" smooth="yes"/>
      <point x="690" y="168"/>
      <point x="650.5" y="217.5"/>
      <point x="594.5" y="218.5" type="curve" smooth="yes"/>
      <point x="537.5" y="219.5"/>
      <point x="478" y="170"/>
    </contour>
  </outline>
</glyph>
<glyph name="minus" format="2">
  <advance width="572"/>
  <unicode hex="2212"/>
  <outline>
    <contour>
      <point x="86" y="265" type="line"/>
      <point x="87.5" y="275" type="line"/>
      <point x="524.5" y="275" type="line"/>
      <point x="523" y="265" type="line"/>
    </contour>
  </outline>
</glyph>
<glyph name="uniFF12" format="1">
  <advance width="533"/>
  <unicode hex="FF12"/>
  <outline>
    <contour>
      <point x="14.5" y="0" type="line"/>
      <point x="381.5" y="334" type="line" smooth="yes"/>
      <point x="437" y="385"/>
      <point x="492.5" y="438"/>
      <point x="506" y="519" type="curve" smooth="yes"/>
      <point x="521" y="601.5"/>
      <point x="481" y="699.5"/>
      <point x="365" y="700.5" type="curve" smooth="yes"/>
      <point x="237.5" y="701.5"/>
      <point x="155.5" y="585.5"/>
      <point x="131" y="460.5" type="curve"/>
      <point x="121" y="460.5" type="line"/>
      <point x="146" y="592"/>
      <point x="232.5" y="712"/>
      <point x="365.5" y="710.5" type="curve" smooth="yes"/>
      <point x="486" y="709.5"/>
      <point x="532.5" y="607"/>
      <point x="517" y="519" type="curve" smooth="yes"/>
      <point x="503.5" y="438"/>
      <point x="447" y="380"/>
      <point x="390.5" y="328" type="curve" smooth="yes"/>
      <point x="41" y="10.5" type="line"/>
      <point x="457" y="10" type="line"/>
      <point x="455.5" y="0" type="line"/>
    </contour>
  </outline>
</glyph>
<glyph name="uniFF16" format="1">
  <advance width="533"/>
  <unicode hex="FF16"/>
  <outline>
    <contour>
      <point x="75.5" y="220" type="curve" smooth="yes"/>
      <point x="58" y="107"/>
      <point x="115.5" y="1.5"/>
      <point x="239" y="0.5" type="curve" smooth="yes"/>
      <point x="363.5" y="-0.5"/>
      <point x="461" y="101"/>
      <point x="479.5" y="220" type="curve" smooth="yes"/>
      <point x="494.5" y="324"/>
      <point x="432" y="425"/>
      <point x="324" y="426.5" type="curve" smooth="yes"/>
      <point x="193.5" y="428"/>
      <point x="95" y="328.5"/>
    </contour>
    <contour>
      <point x="419.5" y="699" type="line"/>
      <point x="432" y="699" type="line"/>
      <point x="136.5" y="356" type="line"/>
      <point x="136" y="355.5" type="line"/>
      <point x="185.5" y="403"/>
      <point x="250" y="438"/>
      <point x="324.5" y="437" type="curve" smooth="yes"/>
      <point x="440" y="435"/>
      <point x="504.5" y="328.5"/>
      <point x="489" y="220" type="curve" smooth="yes"/>
      <point x="470" y="93.5"/>
      <point x="371.5" y="-10"/>
      <point x="238.5" y="-9.5" type="curve" smooth="yes"/>
      <point x="106" y="-9"/>
      <point x="47" y="99.5"/>
      <point x="65.5" y="220" type="curve" smooth="yes"/>
      <point x="76" y="279"/>
      <point x="111.5" y="337.5"/>
      <point x="147" y="379" type="curve" smooth="yes"/>
    </contour>
  </outline>
</glyph>
<glyph name="uniFF19" format="1">
  <advance width="533"/>
  <unicode hex="FF19"/>
  <outline>
    <contour>
      <point x="523.5" y="480" type="curve" smooth="yes"/>
      <point x="541" y="593"/>
      <point x="483.5" y="698.5"/>
      <point x="360" y="699.5" type="curve" smooth="yes"/>
      <point x="235.5" y="700.5"/>
      <point x="138" y="599"/>
      <point x="119.5" y="480" type="curve" smooth="yes"/>
      <point x="104.5" y="376"/>
      <point x="167" y="275"/>
      <point x="275" y="273.5" type="curve" smooth="yes"/>
      <point x="405.5" y="272"/>
      <point x="504" y="371.5"/>
    </contour>
    <contour>
      <point x="179" y="0" type="line"/>
      <point x="167" y="0" type="line"/>
      <point x="462" y="344" type="line"/>
      <point x="462.5" y="344.5" type="line"/>
      <point x="413" y="297"/>
      <point x="349" y="262"/>
      <point x="274.5" y="263" type="curve" smooth="yes"/>
      <point x="159" y="265"/>
      <point x="94.5" y="371.5"/>
      <point x="110" y="480" type="curve" smooth="yes"/>
      <point x="129" y="606.5"/>
      <point x="227.5" y="710"/>
      <point x="360.5" y="709.5" type="curve" smooth="yes"/>
      <point x="493" y="709"/>
      <point x="552" y="600.5"/>
      <point x="533.5" y="480" type="curve" smooth="yes"/>
      <point x="523" y="421"/>
      <point x="487.5" y="362.5"/>
      <point x="452" y="321" type="curve" smooth="yes"/>
    </contour>
  </outline>
</glyph>
<glyph name="aogonek.alt" format="1">
  <advance width="422"/>
  <outline>
    <contour>
      <point x="44.5" y="135" type="curve" smooth="yes"/>
      <point x="32" y="51"/>
      <point x="86" y="0.5"/>
      <point x="159.5" y="0.5" type="curve" smooth="yes"/>
      <point x="253" y="0.5"/>
      <point x="324.5" y="76.5"/>
      <point x="345.5" y="159" type="curve"/>
      <point x="350.5" y="159" type="line"/>
      <point x="330" y="72.5"/>
      <point x="261" y="-9.5"/>
      <point x="159" y="-9.5" type="curve" smooth="yes"/>
      <point x="80" y="-9.5"/>
      <point x="21.5" y="45.5"/>
      <point x="34.5" y="135.5" type="curve" smooth="yes"/>
      <point x="50" y="228.5"/>
      <point x="144" y="280.5"/>
      <point x="235" y="280.5" type="curve" smooth="yes"/>
      <point x="297" y="280.5"/>
      <point x="334" y="259"/>
      <point x="361" y="235" type="curve"/>
      <point x="359" y="225.5" type="line"/>
      <point x="331" y="251.5"/>
      <point x="290.5" y="270.5"/>
      <point x="234" y="270.5" type="curve" smooth="yes"/>
      <point x="150" y="270.5"/>
      <point x="59.5" y="222.5"/>
    </contour>
    <contour>
      <point x="121.5" y="395.5" type="curve"/>
      <point x="116" y="404" type="line"/>
      <point x="157.5" y="435.5"/>
      <point x="211" y="470.5"/>
      <point x="278.5" y="469.5" type="curve" smooth="yes"/>
      <point x="367" y="468"/>
      <point x="392" y="399"/>
      <point x="382" y="320" type="curve" smooth="yes"/>
      <point x="326.5" y="0" type="line"/>
      <point x="316.5" y="0" type="line"/>
      <point x="372.5" y="320" type="line" smooth="yes"/>
      <point x="382" y="395"/>
      <point x="360" y="458"/>
      <point x="278" y="459.5" type="curve" smooth="yes"/>
      <point x="215" y="461"/>
      <point x="164" y="428.5"/>
    </contour>
    <contour>
      <point x="330.5" y="-173.5" type="curve"/>
      <point x="336.5" y="-181" type="line"/>
      <point x="313" y="-201"/>
      <point x="275.5" y="-220"/>
      <point x="234.5" y="-219.5" type="curve" smooth="yes"/>
      <point x="179" y="-219"/>
      <point x="140.5" y="-189.5"/>
      <point x="147.5" y="-139.5" type="curve" smooth="yes"/>
      <point x="158.5" y="-65"/>
      <point x="253.5" y="-23.5"/>
      <point x="322" y="9.5" type="curve"/>
      <point x="327.5" y="0" type="line"/>
      <point x="262.5" y="-31"/>
      <point x="167.5" y="-73.5"/>
      <point x="157.5" y="-140" type="curve" smooth="yes"/>
      <point x="151.5" y="-185"/>
      <point x="190.5" y="-209"/>
      <point x="235.5" y="-209.5" type="curve" smooth="yes"/>
      <point x="273.5" y="-210"/>
      <point x="308" y="-191"/>
    </contour>
  </outline>
</glyph>
<glyph name="aring.alt" format="1">
  <advance width="422"/>
  <outline>
    <contour>
      <point x="44.5" y="135" type="curve" smooth="yes"/>
      <point x="32" y="51"/>
      <point x="86" y="0.5"/>
      <point x="159.5" y="0.5" type="curve" smooth="yes"/>
      <point x="253" y="0.5"/>
      <point x="324.5" y="76.5"/>
      <point x="345.5" y="159" type="curve"/>
      <point x="350.5" y="159" type="line"/>
      <point x="330" y="72.5"/>
      <point x="261" y="-9.5"/>
      <point x="159" y="-9.5" type="curve" smooth="yes"/>
      <point x="80" y="-9.5"/>
      <point x="21.5" y="45.5"/>
      <point x="34.5" y="135.5" type="curve" smooth="yes"/>
      <point x="50" y="228.5"/>
      <point x="144" y="280.5"/>
      <point x="235" y="280.5" type="curve" smooth="yes"/>
      <point x="297" y="280.5"/>
      <point x="334" y="259"/>
      <point x="361" y="235" type="curve"/>
      <point x="359" y="225.5" type="line"/>
      <point x="331" y="251.5"/>
      <point x="290.5" y="270.5"/>
      <point x="234" y="270.5" type="curve" smooth="yes"/>
      <point x="150" y="270.5"/>
      <point x="59.5" y="222.5"/>
    </contour>
    <contour>
      <point x="121.5" y="395.5" type="curve"/>
      <point x="116" y="404" type="line"/>
      <point x="157.5" y="435.5"/>
      <point x="211" y="470.5"/>
      <point x="278.5" y="469.5" type="curve" smooth="yes"/>
      <point x="367" y="468"/>
      <point x="392" y="399"/>
      <point x="382" y="320" type="curve" smooth="yes"/>
      <point x="326.5" y="0" type="line"/>
      <point x="316.5" y="0" type="line"/>
      <point x="372.5" y="320" type="line" smooth="yes"/>
      <point x="382" y="395"/>
      <point x="360" y="458"/>
      <point x="278" y="459.5" type="curve" smooth="yes"/>
      <point x="215" y="461"/>
      <point x="164" y="428.5"/>
    </contour>
    <contour>
      <point x="207" y="630.5" type="curve" smooth="yes"/>
      <point x="215.5" y="686"/>
      <point x="270" y="730"/>
      <point x="323.5" y="729.5" type="curve" smooth="yes"/>
      <point x="376.5" y="729"/>
      <point x="414" y="683.5"/>
      <point x="406" y="629.5" type="curve" smooth="yes"/>
      <point x="397.5" y="574"/>
      <point x="343" y="530"/>
      <point x="289.5" y="530.5" type="curve" smooth="yes"/>
      <point x="236.5" y="531"/>
      <point x="199" y="576.5"/>
    </contour>
    <contour>
      <point x="217" y="630" type="curve" smooth="yes"/>
      <point x="210" y="582.5"/>
      <point x="242.5" y="541.5"/>
      <point x="290.5" y="540.5" type="curve" smooth="yes"/>
      <point x="339" y="539.5"/>
      <point x="388.5" y="581"/>
      <point x="396" y="630" type="curve" smooth="yes"/>
      <point x="403" y="677.5"/>
      <point x="370.5" y="718.5"/>
      <point x="322.5" y="719.5" type="curve" smooth="yes"/>
      <point x="274" y="720.5"/>
      <point x="224.5" y="679"/>
    </contour>
  </outline>
</glyph>
